<?xml version="1.0" encoding="UTF-8"?>
<svg width="36px" height="31px" viewBox="0 0 36 31" version="1.1" xmlns="http://www.w3.org/2000/svg" xmlns:xlink="http://www.w3.org/1999/xlink">
    <!-- Generator: Sketch 47.1 (45422) - http://www.bohemiancoding.com/sketch -->
    <title>arrow scroll down</title>
    <desc>Created with Sketch.</desc>
    <defs></defs>
    <g id="Design" stroke="none" stroke-width="1" fill="none" fill-rule="evenodd">
        <g id="02_OurStory" transform="translate(-440.000000, -1759.000000)" fill-rule="nonzero" fill="#008BC1">
            <g id="Intro" transform="translate(45.000000, 1241.000000)">
                <g id="arrow-scroll-down" transform="translate(394.449219, 518.574219)">
                    <path d="M1.14766686,15.8571326 C0.826004997,16.1784368 0.64526715,16.6144335 0.64526715,17.0690792 C0.64526715,17.523725 0.826004997,17.9597217 1.14766686,18.2810259 L17.2925333,29.8523331 C17.6138375,30.173995 18.0498343,30.3547328 18.50448,30.3547328 C18.9591257,30.3547328 19.3951225,30.173995 19.7164267,29.8523331 L35.8527281,18.2810259 C36.5220678,17.6116862 36.5220677,16.5264723 35.8527281,15.8571326 C35.1833884,15.1877929 34.0981745,15.1877929 33.4288348,15.8571326 L18.5001975,26.2207756 L3.57156023,15.8571326 C3.25025602,15.5354707 2.81425928,15.3547328 2.35961354,15.3547328 C1.9049678,15.3547328 1.46897106,15.5354707 1.14766686,15.8571326 Z" id="arrow"></path>
                    <path d="M1.14766686,0.857132554 C0.826004997,1.17843676 0.64526715,1.6144335 0.64526715,2.06907924 C0.64526715,2.52372498 0.826004997,2.95972172 1.14766686,3.28102592 L17.2925333,14.8523331 C17.6138375,15.173995 18.0498343,15.3547328 18.50448,15.3547328 C18.9591257,15.3547328 19.3951225,15.173995 19.7164267,14.8523331 L35.8527281,3.28102592 C36.5220678,2.61168624 36.5220677,1.52647226 35.8527281,0.857132602 C35.1833884,0.187792949 34.0981745,0.187792927 33.4288348,0.857132554 L18.5001975,11.2207756 L3.57156023,0.857132554 C3.25025602,0.535470696 2.81425928,0.35473285 2.35961354,0.35473285 C1.9049678,0.35473285 1.46897106,0.535470696 1.14766686,0.857132554 Z" id="arrow-copy"></path>
                </g>
            </g>
        </g>
    </g>
</svg>