<?xml version="1.0" encoding="UTF-8"?>
<svg width="90px" height="90px" viewBox="0 0 90 90" version="1.1" xmlns="http://www.w3.org/2000/svg" xmlns:xlink="http://www.w3.org/1999/xlink">
    <title>Play Button</title>
    <g id="Page-1" stroke="none" stroke-width="1" fill="none" fill-rule="evenodd">
        <g id="02_COVID-10-Resources_UniteKindness" transform="translate(-1010.000000, -1738.000000)">
            <g id="Intro" transform="translate(70.000000, 1352.000000)">
                <g id="bw-indian-girl" transform="translate(680.000000, 206.000000)">
                    <g id="Play-Button" transform="translate(260.000000, 180.000000)">
                        <g>
                            <circle id="Oval-3" stroke="#FFFFFF" stroke-width="6" fill-opacity="0.2" fill="#797979" cx="45" cy="45" r="42"></circle>
                            <path d="M49.9332538,30.283805 L65.9643377,57.6973826 C66.5219316,58.6508829 66.200986,59.8758668 65.2474857,60.4334607 C64.9411726,60.6125884 64.592717,60.7069957 64.2378727,60.7069957 L32.1757049,60.7069957 C31.0711354,60.7069957 30.1757049,59.8115652 30.1757049,58.7069957 C30.1757049,58.3521514 30.2701122,58.0036957 30.4492399,57.6973826 L46.4803238,30.283805 C47.0379177,29.3303047 48.2629015,29.0093592 49.2164018,29.5669531 C49.5129529,29.740372 49.7598348,29.987254 49.9332538,30.283805 Z" id="Triangle" fill="#FFFFFF" transform="translate(48.206951, 45.000045) rotate(90.000000) translate(-48.206951, -45.000045) "></path>
                        </g>
                    </g>
                </g>
            </g>
        </g>
    </g>
</svg>