<?xml version="1.0" encoding="UTF-8"?>
<svg width="48px" height="48px" viewBox="0 0 48 48" version="1.1" xmlns="http://www.w3.org/2000/svg" xmlns:xlink="http://www.w3.org/1999/xlink">
    <!-- Generator: Sketch 47.1 (45422) - http://www.bohemiancoding.com/sketch -->
    <title>Dove ICON</title>
    <desc>Created with Sketch.</desc>
    <defs></defs>
    <g id="Symbols" stroke="none" stroke-width="1" fill="none" fill-rule="evenodd">
        <g id="Dove-ICON">
            <path d="M27.9378073,9.54422937 C30.9561813,5.65008666 29.8242911,12.0565795 29.8242911,13.5639896 C31.7107748,13.6896071 30.5788846,15.0713997 29.3212288,16.0763397 C27.5605106,17.5837498 25.5482613,18.4630724 23.5360119,19.5936299 C21.2722315,20.9754225 19.7630445,22.6084501 18.7569198,24.8695652 C16.6189049,20.59857 25.7997924,18.4630724 26.4286203,6.27817419 C26.5543859,0.248533861 28.3151041,7.91120178 27.9378073,9.54422937 Z M35.304804,7.70045504 C37.099486,2.00284621 36.7149113,9.85288504 35.8175703,11.2456339 C39.9197005,8.33352268 37.099486,14.157745 36.4585282,15.6771074 C38.5095933,17.4496968 36.7149113,18.5892186 35.1766125,21.1214892 C37.3558691,23.4005327 35.5611872,23.6537597 33.253739,26.1860303 C34.5356546,28.2118468 33.253739,27.8320062 30.8180992,28.8449145 C32.8691642,33.276388 25.4677015,33.7326536 23.8012111,33.352813 C25.4677015,38.5439678 27.4851184,39.8602915 33.7665052,42.6457892 C32.7409727,42.7724027 31.8436317,43.0256298 30.8180992,43.1522433 C29.664375,44.6716056 30.0489497,44.291765 28.2542678,42.8990162 C27.2287352,45.1780598 26.5877774,43.4054703 24.921287,41.6328809 C22.3574556,43.6586974 19.4090496,36.4417262 19.6654327,37.0747939 C6.84627589,32.7699339 16.7170266,21.6279433 8,24.0336003 L8.76914941,22.8940786 C9.15372411,19.3488997 13.8968121,16.4367886 18.383517,26.6924845 C22.1010725,16.6900156 30.0489497,22.3876245 35.304804,7.70045504 Z" id="Fill-1" fill="#9B9B9B"></path>
            <circle id="Oval" stroke="#9B9B9B" stroke-width="1.2" cx="24" cy="24" r="23.4"></circle>
        </g>
    </g>
</svg>