<?xml version="1.0" encoding="UTF-8"?>
<svg width="48px" height="48px" viewBox="0 0 48 48" version="1.1" xmlns="http://www.w3.org/2000/svg" xmlns:xlink="http://www.w3.org/1999/xlink">
    <!-- Generator: Sketch 47.1 (45422) - http://www.bohemiancoding.com/sketch -->
    <title>Global Community ICON</title>
    <desc>Created with Sketch.</desc>
    <defs></defs>
    <g id="Symbols" stroke="none" stroke-width="1" fill="none" fill-rule="evenodd">
        <g id="Global-Community-ICON" fill-rule="nonzero" fill="#9B9B9B">
            <path d="M24.0007474,-2.27373675e-13 C10.7661037,-2.27373675e-13 0,10.7664902 0,24.0004983 C0,37.2335098 10.7661037,48 24.0007474,48 C37.2328997,48 48,37.2335098 48,24.0004983 C48,10.7664902 37.233398,-2.27373675e-13 24.0007474,-2.27373675e-13 Z M22.2091191,15.0134474 C22.1804109,15.1081907 22.2535885,15.1613692 22.2913031,15.1900978 C22.3307064,15.2188264 22.3791162,15.2555012 22.4241486,15.3343521 C22.4759358,15.4229829 22.6020265,15.5385086 22.734309,15.6607579 C22.8187447,15.7377751 22.9510273,15.8606357 23,15.9266504 C22.917253,15.9303178 22.7489446,15.9254279 22.3791162,15.9841076 C22.3442162,15.99022 22.3132564,15.9963325 22.2834225,16 C22.2642837,15.9792176 22.2350127,15.9657702 22.1933577,15.9621027 C22.1010414,15.9517115 22.0706445,15.9138142 22.026738,15.8600244 C21.9918379,15.8172372 21.9501829,15.7671149 21.8786941,15.7420538 C21.8499859,15.7304401 21.8336617,15.7145477 21.8094568,15.690709 C21.7452857,15.6265281 21.6788629,15.5721271 21.5083028,15.556846 C21.430622,15.5501222 21.3996623,15.547066 21.3861525,15.547066 C21.3557557,15.547066 21.3354911,15.559291 21.3225443,15.5715159 C21.3112862,15.5739609 21.2927104,15.5770171 21.2651281,15.5794621 C21.1761891,15.5880196 21.1373487,15.5971883 21.1035744,15.6051345 C21.0923164,15.6045232 21.0782437,15.5996333 21.0455953,15.5922983 L21.0011258,15.5800733 L21,15.5800733 C21.2465522,15.4969438 21.4790318,15.4235941 21.5223755,15.4211491 C21.6039966,15.4211491 21.7250211,15.3361858 21.9895863,15.1430318 C22.0509429,15.0984108 22.1173656,15.0501222 22.1877287,15 L22.2091191,15.0134474 Z M25.7689819,9.9155936 L25.7265191,9.90321211 C25.6486705,9.87646809 25.5637448,9.86804868 25.4363563,9.85418141 C25.3701345,9.84724777 25.2912749,9.83981888 25.1937115,9.82595161 C25.1472045,9.82000849 25.1108078,9.81753219 25.0819937,9.81753219 C24.9475281,9.81753219 24.9212415,9.88686854 24.9121424,9.95422386 C24.9101203,9.97849158 24.9070873,9.99780671 24.8914164,10.0181124 C24.8044687,10.1320221 24.6841573,10.3390406 24.6437165,10.8219188 C24.6396724,10.8778831 24.6331008,10.9600962 24.6275402,11.011108 C24.5855829,11.0309184 24.5638459,11.0814348 24.5517137,11.1081789 C24.4617329,11.3132164 24.4779092,11.3721523 24.5517137,11.5474742 C24.565868,11.5821424 24.5739561,11.6074006 24.5739561,11.6217631 C24.5739561,11.6524692 24.6068143,11.69209 24.6371449,11.7019952 C24.6472551,11.7049667 24.66697,11.7119004 24.7043777,11.730225 C24.7862703,11.770341 24.7862703,11.770341 24.8236781,11.886727 C24.8373269,11.9293194 24.8550197,11.9833027 24.8818117,12.0551153 C24.9293297,12.1828923 24.9141644,12.2200368 24.8954605,12.268077 C24.8767566,12.3151266 24.8540087,12.3745578 24.8787787,12.4830197 C24.8995046,12.5721664 24.8150844,12.617235 24.6300677,12.691524 C24.5845718,12.7098486 24.5400869,12.7286685 24.4996461,12.7479836 C24.2863209,12.8524834 24.2575068,12.9129051 24.2175715,13.1476581 C24.1973511,13.2660252 24.2200991,13.3180275 24.2514407,13.3739918 C24.2731776,13.4136126 24.2994642,13.4581859 24.2908705,13.6112212 C24.2863209,13.6830338 24.2812658,13.7796095 24.2635729,13.8023914 C24.2382974,13.8182397 24.1968456,13.8449837 24.138712,13.9158059 C24.0694571,14 24.0350824,14 24.0229502,14 C24.0042463,14 23.9820038,13.9925711 23.9567283,13.9836564 C23.9299363,13.9757323 23.9041553,13.9673129 23.8768577,13.9633508 C23.8278233,13.9430451 23.7196441,13.7023489 23.6761703,13.4225272 C23.6584774,13.3091128 23.6675766,13.2576058 23.6797088,13.1991651 C23.6913356,13.1412198 23.7044788,13.074855 23.6953796,12.9535163 C23.6792033,12.74105 23.612476,12.6920192 23.486604,12.617235 C23.4562734,12.6003962 23.4234152,12.5800906 23.384491,12.5528513 C23.2510363,12.460733 23.1701547,12.4523136 23.0857345,12.4433989 C23.0417551,12.437951 22.9962592,12.4334937 22.9361035,12.4151691 C22.8769589,12.3983303 22.835507,12.3879298 22.7970883,12.3785199 C22.7151956,12.3592048 22.6606005,12.3468233 22.4993428,12.2740201 C22.4270549,12.241333 22.4164392,12.2235036 22.4164392,12.2235036 C22.4164392,12.2195415 22.4179557,12.2101316 22.4189667,12.2022074 C22.4250329,12.1596151 22.4356486,12.088793 22.356789,12.0001415 C22.2491154,11.8802887 22.1399252,11.8263054 22.0256799,11.7698458 C21.9892832,11.7520164 21.9498534,11.7331965 21.9099181,11.7109099 L21.8740269,11.6915947 C21.7193408,11.6074006 21.5985239,11.5410358 21.4883227,11.5053771 C21.425134,11.4845762 21.4084521,11.4206877 21.3892427,11.2389274 C21.3725609,11.0695486 21.2734809,11.0086317 21.1865332,10.9546484 C21.1587302,10.9388001 21.1294106,10.9209707 21.1036296,10.8996745 C21.0707714,10.8724353 21.0439794,10.8560917 21.02477,10.8442055 C21.0166818,10.8397481 21.0075827,10.833805 21.0070771,10.833805 C21.0030331,10.8238998 21,10.7922032 21,10.7362389 C21,10.6381774 21.0313416,10.5638885 21.0712769,10.4702844 C21.0955414,10.4113485 21.1243555,10.3444885 21.1460924,10.2642564 C21.1728844,10.1691665 21.1865332,10.1607471 21.2931958,10.0998302 C21.3624507,10.0592189 21.4681023,9.99830197 21.6212719,9.88389699 C21.7481549,9.78930239 21.804772,9.75512948 21.8280255,9.74274798 C21.8507734,9.76404415 21.8962693,9.78583557 21.9665352,9.76899675 L21.9857446,9.76404415 C22.1101001,9.73383331 22.1293095,9.717985 22.1818825,9.59664638 C22.1919927,9.57336918 22.204125,9.54513938 22.2208068,9.50948068 C22.2607421,9.42132447 22.306238,9.41389557 22.4043069,9.39804726 C22.4715398,9.38665629 22.5549489,9.37278902 22.6499848,9.32573935 L22.8739258,9.21628697 C22.9826105,9.16279892 23.0159741,9.14645536 23.01193,9.09197679 C23.009908,9.04096505 22.9634011,9.0231357 22.9477303,9.01768784 C22.9219492,9.00728739 22.9002123,8.99936324 22.8951572,8.94438942 C22.8926297,8.91962643 22.8890911,8.89733975 22.8845415,8.87851988 C22.9689617,8.87653884 23.1155596,8.87851988 23.1650996,8.79283996 C23.1777373,8.76956276 23.1817814,8.74628555 23.1797594,8.72498939 L23.237893,8.62346116 C23.2419371,8.62742323 23.2449702,8.63138531 23.2480032,8.63386161 C23.2758063,8.66110089 23.30917,8.69576907 23.360732,8.69576907 C23.4208877,8.69576907 23.5472652,8.69576907 23.7317764,8.59572662 L23.8192296,8.54768643 C23.9435851,8.4818169 24.0325548,8.43328145 24.113942,8.36988821 C24.2246487,8.28371303 24.2499242,8.25003538 24.2898595,8.05440781 C24.316146,7.92266874 24.2777272,7.86274232 24.2337479,7.80875902 C24.215044,7.78498656 24.2019007,7.77012877 24.1973511,7.73793689 C24.190274,7.69138248 24.1993732,7.6690958 24.2130219,7.6383897 C24.2276817,7.60074996 24.2463856,7.55419556 24.2337479,7.48188765 C24.2165605,7.38134994 24.2165605,7.32984293 24.2165605,7.32984293 C24.2165605,7.32885241 24.2185825,7.24961087 24.266606,7.13916796 C24.2751997,7.11935758 24.2817713,7.10895712 24.2792438,7.12084336 C24.3217066,7.12975803 24.3808513,7.12975803 24.4354464,7.10251875 C24.4738651,7.08419414 24.5031847,7.07825103 24.5319988,7.07329843 C24.5744616,7.06537427 24.6270347,7.05596434 24.6720251,7 C24.7094328,7.00643838 24.7898089,7.051507 24.8342938,7.07626999 C24.867152,7.09558511 24.8974826,7.11242394 24.9202305,7.1228244 C24.9647154,7.14213952 25.0021231,7.24663931 25.0506521,7.37738786 L25.0754221,7.44573369 C25.0991811,7.50714589 25.1108078,7.54577614 25.118896,7.56954861 C25.1295117,7.6052073 25.146699,7.66067638 25.2108988,7.66067638 C25.2139319,7.66067638 25.2275806,7.65720957 25.2316247,7.65720957 C25.2513396,7.66265742 25.3074512,7.71218339 25.3580022,7.76765247 C25.4596097,7.85432291 25.6107573,8.01874912 25.6107573,8.0950191 C25.6107573,8.17178435 25.6006471,8.17921324 25.5475685,8.21635772 C25.5288646,8.22774869 25.5111718,8.24062544 25.4904459,8.25647375 C25.3671014,8.35255412 25.3317157,8.49469365 25.3145284,8.59325032 C25.3054292,8.64426206 25.3145284,8.69824537 25.3226165,8.75123815 C25.3276716,8.78293477 25.3352543,8.83592755 25.3382873,8.84286119 C25.2316247,8.86019527 25.2316247,8.86019527 24.9500556,8.86019527 C24.6821353,8.86019527 24.6588818,8.96816188 24.6558488,9.13258809 C24.6538267,9.17567568 24.6528157,9.22619216 24.6447275,9.2871091 C24.6285512,9.39953304 24.6427055,9.47877459 24.6876959,9.52978633 C24.7251036,9.57237866 24.8317663,9.61199943 24.9819027,9.54513938 C25.0759276,9.50304231 25.1795572,9.4074572 25.2346578,9.35149285 C25.3008796,9.38962785 25.4272571,9.46837413 25.5607118,9.58773171 L25.6279446,9.64666761 C25.7866748,9.78781661 25.8943484,9.88389699 26,10.0121692 C25.9322617,9.96660535 25.8443029,9.93887081 25.7689819,9.9155936 Z M26.6422793,46.8523797 C26.6618927,46.8307892 26.676477,46.8081944 26.6945817,46.7760595 L26.7162068,46.7409121 C26.7664976,46.6565582 26.8328814,46.5887738 26.8348931,46.5877695 C26.8439454,46.5777274 27.0627105,46.3603152 27.1391525,46.2443286 C27.1668124,46.2041601 27.1989986,46.1680084 27.2316876,46.1343672 C27.2865046,46.0746165 27.3428303,46.0138616 27.3699873,45.9305119 C27.3956356,45.8531875 27.393624,45.803981 27.3815542,45.7688336 C27.4031793,45.7070745 27.4474352,45.5785352 27.4549788,45.5303329 C27.4630253,45.5263161 27.4911882,45.5222992 27.5097958,45.521295 C27.5480168,45.5182824 27.5952902,45.5152697 27.6425635,45.4946834 C27.792933,45.4349327 27.8824507,45.3711651 27.9206717,45.2938407 C27.9609044,45.2135036 28.0217562,45.0151715 28.0217562,44.8926575 C28.0217562,44.8404384 28.1178117,44.7947467 28.1957625,44.7570887 L28.2390126,44.7354981 C28.2676783,44.7249538 28.3099226,44.7395149 28.3667512,44.7590971 C28.4522456,44.7897256 28.559365,44.8278857 28.7107404,44.8178436 C28.9632002,44.8002698 29.0723313,44.4126435 29.1311716,44.2047714 C29.1427384,44.1625944 29.150785,44.1304596 29.1487733,44.1274469 C29.1799536,44.1068606 29.3343464,44.08527 29.4012332,44.0772363 C29.4525298,44.0702068 29.4962829,44.0636794 29.5189137,44.0576541 C29.5868063,44.0400804 29.895089,43.9868571 30.0474702,43.9662707 C30.1435256,43.9547222 30.2063891,43.91606 30.2742817,43.8748873 C30.3265842,43.8442588 30.3844186,43.8091113 30.469913,43.7779807 C30.6212883,43.7232511 30.644925,43.7036689 30.7359514,43.6173066 C30.7721608,43.5831633 30.8214458,43.5369695 30.8998994,43.4691851 C30.9587397,43.4179702 30.9728211,43.3622364 30.973324,43.3230721 C30.9763415,43.1885075 30.8405563,43.0604703 30.6972274,42.9249015 C30.7746753,42.9751122 30.819937,42.9916817 30.8631871,42.9916817 L30.8631871,42.9916817 C30.8963791,42.9916817 30.9200157,42.9811374 30.940635,42.9731037 C30.96226,42.9625595 30.9848909,42.9525174 31.0366904,42.9525174 C31.1910832,42.9525174 31.2408711,42.9389605 31.3615691,42.9053193 C31.3937552,42.8972856 31.4324791,42.8877456 31.4782438,42.8746908 C31.5566974,42.8561129 31.6039708,42.8510918 31.6462151,42.847075 C31.728692,42.8390413 31.7825032,42.8305054 31.9067215,42.7556915 C32.007806,42.6949366 32.0108235,42.6929282 32.0274194,42.6723418 C32.0344601,42.6643081 32.0500503,42.644726 32.1727599,42.5478194 C32.3316788,42.4222927 32.3427428,42.4122506 32.379958,42.3685673 C32.3995714,42.3449683 32.429243,42.3108251 32.5127258,42.2284796 C32.6932698,42.0472191 32.6962872,42.0452106 32.8054183,41.8860428 L32.933157,41.7047823 C33.0960992,41.4713027 33.0960992,41.4713027 33.5773823,41.1851019 L33.7936327,41.0565626 C34.0903485,40.8783148 34.1904273,40.7859271 34.1874098,40.6905269 C34.1843924,40.6081814 34.1109678,40.5670086 34.0450868,40.5338696 C33.9646215,40.4916926 33.9103074,40.4585536 33.9027638,40.3927776 C33.8841562,40.2396351 33.8977347,40.2240698 33.9460139,40.1693402 C33.9802117,40.1311801 34.0284908,40.0779568 34.0807933,39.9740207 C34.1572353,39.8208781 35.1218131,39.4397792 35.6976429,39.2118228 C36.0179954,39.0842877 36.2940919,38.9753305 36.4520051,38.8990103 C36.7044649,38.7785047 36.7200551,38.770471 36.7270958,38.7147372 C36.7331307,38.6685434 36.7004417,38.6429359 36.6818341,38.6253622 C36.6818341,38.6253622 36.6692614,38.5861979 36.7582761,38.4476164 C36.9136747,38.21012 37.0313552,38.0810786 37.1178554,37.9876867 C37.1877597,37.9113665 37.2355359,37.8581432 37.2652075,37.7903588 C37.2828093,37.7461734 37.3240478,37.6814017 37.3693095,37.6136173 C37.4507806,37.4880906 37.5453273,37.3449902 37.5815367,37.207413 C37.6031618,37.132097 37.6177461,37.0964474 37.6278043,37.0748569 C37.6504351,37.023642 37.6514409,37.0040598 37.640377,36.9181996 C37.5765076,36.477852 37.5609175,35.9099694 37.7052521,35.6333086 C37.8123715,35.432466 37.9391044,35.3029225 38.0743867,35.1653452 C38.1900555,35.0478523 38.3102506,34.9258404 38.4239078,34.7536178 C38.5803122,34.5126066 38.6301001,34.467417 38.7000044,34.4056579 C38.7372196,34.3715146 38.7794639,34.3328524 38.8413216,34.2625575 C39.0143219,34.0742675 39.128985,33.8312479 39.1742467,33.5616166 C39.2185026,33.2990148 39.1606682,33.0790921 39.0062754,32.9239411 C38.915752,32.8345661 38.833275,32.829043 38.7673941,32.8250261 C38.7025189,32.8210093 38.6477019,32.8159882 38.5591901,32.7366554 C38.3389163,32.5378211 38.2252591,32.5167326 37.7459877,32.4228387 C37.4985569,32.3756407 37.3833909,32.4092818 37.2923645,32.4494503 C37.2159225,32.4800788 37.1344514,32.5142221 36.9046224,32.4956442 C36.610924,32.4770662 36.5581187,32.4986568 36.4997813,32.5267748 C36.4701098,32.5413359 36.4439585,32.5463569 36.3152141,32.5348085 C36.3026414,32.5328 36.2895657,32.5307916 36.2779989,32.5307916 C36.2945948,32.4700367 36.2709581,32.4112902 36.2417895,32.3640922 C36.1653474,32.2445908 36.041632,32.2315361 35.9551318,32.2315361 C35.9013207,32.2315361 35.8439892,32.2365571 35.7861547,32.2430845 C35.6810469,32.254633 35.57091,32.2626667 35.4984913,32.2410761 C35.313924,32.184338 35.2606157,32.179317 35.1947348,32.1732917 C35.1741155,32.1712833 35.1484672,32.1692748 35.1162811,32.1642538 L35.0780601,32.1592327 C34.9523331,32.141659 34.7627367,32.1150473 34.4866401,32.0030775 C34.3775091,31.9568837 34.2537937,31.9383058 34.137119,31.9503563 L34.2306599,31.8690151 C34.2452442,31.8554582 34.2542966,31.8378844 34.2563082,31.816796 C34.2563082,31.8067538 34.2718984,31.5567047 34.0853195,31.2137659 C33.8680631,30.2361642 32.7938514,30.1302197 32.3397254,30.1302197 C32.2974811,30.1302197 32.265295,30.1312239 32.2426641,30.1312239 L32.1466087,30.1332323 C32.0711724,30.1332323 31.9685792,30.1241944 31.7312065,30.0272878 C31.5964272,29.9705498 31.4611449,29.9745666 31.3882232,29.995153 C31.3882232,29.8892085 31.3841999,29.8646053 31.3324004,29.8008377 C31.3208335,29.7872809 31.3037346,29.7687029 31.2821096,29.7380744 C31.1935978,29.6145562 31.055298,29.5643455 30.8792802,29.5015822 C30.8380417,29.4860169 30.7947916,29.4704516 30.7485241,29.4523757 C30.6373814,29.4101988 30.5941313,29.4021651 30.562951,29.4021651 C30.5186951,29.4021651 30.4950584,29.4217472 30.4814799,29.4287767 C30.4618664,29.4287767 30.4412472,29.4317893 30.4196222,29.434802 C30.3577645,29.4398231 30.2868544,29.4659326 30.1309529,29.3434186 C30.1309529,29.3373933 30.1299471,29.3318701 30.1279355,29.3248406 C30.1309529,29.3072669 30.1661565,29.2580604 30.20136,29.2239172 C30.2219793,29.2023266 30.22902,29.1701918 30.2159444,29.1425759 C30.2053833,29.11496 30.1787292,29.0973863 30.1480518,29.0973863 L30.0379149,29.0973863 C29.9856125,29.0973863 29.9634845,29.0737873 29.9141995,29.0200619 C29.8996152,29.0034924 29.8845279,28.9879271 29.867932,28.9698512 C29.7296322,28.8327761 29.5918354,28.7639875 29.4454891,28.7639875 C29.3403813,28.7639875 29.3051778,28.7785486 29.259916,28.8167087 C29.2453317,28.8302656 29.2287357,28.8443246 29.1794507,28.8608941 C29.0803778,28.8990542 28.7313596,28.912109 28.521144,28.912109 L27.9473258,28.912109 C27.8432239,28.912109 27.6556391,28.8729446 27.6063541,28.8608941 C27.5701448,28.8393035 27.4610137,28.7755359 27.2870075,28.7137768 C27.207548,28.6831483 27.1889404,28.6645704 27.1728473,28.6500093 C27.1336205,28.6088365 27.0999257,28.5902586 26.9923033,28.5802165 C26.807736,28.5556132 26.7594569,28.6761188 26.72023,28.7654938 C26.7046399,28.7996371 26.6890497,28.8362909 26.6664189,28.8684257 C26.660384,28.8764594 26.6563607,28.8819826 26.6528403,28.8880078 C26.627192,28.8900163 26.5990292,28.8995563 26.5592994,28.9211469 C26.4893952,28.9603112 26.3832816,29.0592262 26.45218,29.2670984 C26.4572091,29.2846721 26.4592207,29.345427 26.4531858,29.411203 C26.4003805,29.4257641 26.2922552,29.4277725 26.2676127,29.4247599 C26.2449819,29.3835871 26.2892378,29.199314 26.3128744,29.0993947 C26.3355053,29.0004797 26.3561245,28.9161258 26.3561245,28.8553709 C26.3561245,28.836793 26.3561245,28.8222319 26.3561245,28.8121897 C26.3666856,28.7895949 26.3707089,28.7609749 26.3737263,28.7378779 C26.380767,28.6906799 26.4169764,28.6555325 26.45218,28.6213892 C26.4914068,28.5812207 26.5406918,28.5320142 26.518061,28.4647319 C26.5074999,28.427576 26.4727992,28.4029728 26.4315608,28.4029728 C26.3777496,28.4029728 26.3038221,28.4451498 26.1881532,28.5139384 C26.145909,28.5385416 26.0790222,28.5767017 26.0604146,28.582727 C26.0317488,28.5897565 25.9417283,28.6123513 25.461451,28.9643281 C25.3653955,29.0351251 25.3070582,29.072281 25.2934797,29.0752936 C25.2738663,29.0712768 25.2296104,29.0672599 25.1727817,29.0823231 C25.001793,29.1245001 24.9882145,29.1400654 24.8524293,29.3333764 C24.8011326,29.4051777 24.7779989,29.4423336 24.7679407,29.4649284 C24.7619058,29.4669368 24.755368,29.4709537 24.7422924,29.4794895 C24.6980365,29.510118 24.6105305,29.6617542 24.4848034,29.9323897 L24.3238728,29.8811748 L24.1890935,29.7491208 C24.1307561,29.6913785 24.1372939,29.6009993 24.1443346,29.5061011 C24.1513753,29.4081903 24.1579131,29.3087732 24.093038,29.2354656 C24.065881,29.2048371 24.0246425,29.1892718 23.9723401,29.1892718 C23.8415839,29.1892718 23.6263393,29.2836679 23.4171295,29.3725408 C23.2949228,29.4272704 23.1792539,29.4764768 23.1229282,29.4880253 C22.9760791,29.5186538 22.8760003,29.5096159 22.7216076,29.4880253 C22.6114707,29.47246 22.3650457,29.3328743 22.3011764,29.2676005 C22.237307,29.2058414 22.1467836,29.1285169 22.1196265,29.1049179 C22.0959899,29.0697704 22.0054664,28.9352059 21.9556785,28.8704341 C21.9345563,28.8398056 21.9290244,28.8232361 21.9234924,28.7971265 C21.9164517,28.7735275 21.908908,28.7423969 21.8892946,28.7157853 C21.8767219,28.6766209 21.8943237,28.4853183 21.9028731,28.3823864 C21.9099138,28.2990367 21.9164517,28.2217123 21.9164517,28.1775269 C21.9164517,28.1283205 21.9451174,28.0776077 21.9732803,28.0263928 C22.0059693,27.9686506 22.0416758,27.9078956 22.0245769,27.8441281 C22.001946,27.7537489 21.4894827,27.0603396 21.3044125,27.0156521 C21.2018192,26.9880363 20.8055276,26.9754836 20.1250929,26.9825131 C20.1009533,26.9353151 20.1824245,26.7199113 20.2090786,26.6501185 C20.228692,26.5973973 20.2442822,26.5532119 20.2503171,26.5296129 C20.266913,26.4412421 20.3222329,26.2775553 20.3574365,26.1685982 C20.3795644,26.1058349 20.4077273,26.0490968 20.4389076,25.9843251 C20.4595268,25.9401397 20.4811519,25.8939459 20.5042857,25.8422289 C20.5334543,25.7744445 20.5430096,25.7453223 20.5530677,25.715698 C20.5621201,25.6890863 20.5706695,25.6634789 20.5973237,25.6017198 C20.61744,25.5545218 20.6355447,25.5193743 20.650129,25.4907542 C20.6767831,25.4395393 20.6984082,25.3958561 20.7119867,25.3290759 L20.7190274,25.296941 C20.7366292,25.216604 20.7436699,25.1704102 20.6913675,25.0147571 C20.6591814,24.9138337 20.5912888,24.8932473 20.5415009,24.8932473 C20.4831635,24.8932473 20.4162767,24.9228716 20.3267591,24.9620359 C20.2472996,24.9971834 20.1497354,25.0403645 20.02602,25.0775204 C19.7826125,25.150828 19.7438886,25.1904944 19.7096908,25.2472325 C19.7026501,25.2587809 19.6981239,25.2688231 19.6624175,25.2853926 C19.5472515,25.3421306 19.5180828,25.4069024 19.4647746,25.5238932 C19.4340972,25.5906734 19.3928587,25.682559 19.3164167,25.8131067 C19.3113876,25.8221446 19.3063585,25.8316846 19.3013294,25.8387141 C19.2751782,25.842731 19.2555648,25.8552836 19.2419863,25.86633 C19.1690646,25.9250765 19.0760266,25.9426502 18.8441859,25.9426502 C18.6048017,25.9426502 18.4599641,25.9426502 18.3171382,25.9250765 C18.1793414,25.9085069 18.1290506,25.8919374 18.039533,25.8552836 C18.0128788,25.8452415 17.9711374,25.8336931 17.918835,25.8221446 C17.7865702,25.7890056 17.5859098,25.7397991 17.4486159,25.6268251 C17.4345345,25.6162809 17.4234705,25.6062387 17.4139152,25.5992092 C17.426488,25.5570323 17.4114007,25.5098343 17.3963135,25.4716742 C17.3178598,25.2753505 17.2539905,25.1909965 17.1021122,25.0403645 C16.8964228,24.8345008 16.8652425,24.7285563 16.8652425,24.6823625 L16.8652425,24.1144799 C16.8652425,24.0517165 16.8697687,23.9979911 16.8737919,23.9467762 C16.8818385,23.8458528 16.889885,23.7494483 16.8637338,23.6194027 C16.8481436,23.5410741 16.8617221,23.5285214 16.8944112,23.4999013 C16.9190537,23.4793149 16.9507369,23.4516991 16.9698474,23.4029947 C16.9799055,23.3803999 16.9809114,23.3793957 17.0306993,23.3562988 C17.0749552,23.3352103 17.1433507,23.3035776 17.2409149,23.2322785 C17.3148423,23.1795573 17.355075,23.1172961 17.360607,23.0520222 C17.3686535,22.9500945 17.2927144,22.8727701 17.2464468,22.8255721 C17.2363887,22.81553 17.2268334,22.8069941 17.2228102,22.7989604 C17.2102375,22.7813867 17.2102375,22.7618045 17.212752,22.7095854 C17.2142607,22.6879949 17.2157694,22.6628895 17.2162724,22.6292484 C17.2177811,22.6262357 17.2268334,22.6202105 17.2333712,22.6176999 C17.2539905,22.6061515 17.2932173,22.5825525 17.3052871,22.5343502 C17.3887698,22.4610427 17.9047536,22.1838798 18.2185682,22.0789395 C18.3664232,22.0292309 18.4126908,22.0086446 18.4483973,21.996594 C18.4649932,21.9960919 18.4896357,21.9945856 18.5359033,21.9895645 C18.6410111,21.982535 18.6918048,22.0056319 18.8321161,22.0879774 C18.9055407,22.1311586 19.0051165,22.1899051 19.1469366,22.2596979 C19.3184283,22.345056 19.3817947,22.3616255 19.424039,22.3616255 C19.4808676,22.3616255 19.5185857,22.330997 19.5371933,22.2667274 C19.6317401,22.2546768 19.7106966,22.2586937 19.7881445,22.2632126 C19.8298859,22.2657232 19.8726331,22.2677316 19.916889,22.2677316 C20.1155377,22.2677316 20.1768925,22.1306565 20.190471,22.0874753 C20.2136048,22.0211972 20.1668343,21.9654634 20.1271046,21.9237885 C20.1638169,21.9237885 20.2050553,21.9268012 20.245288,21.9298138 C20.2875323,21.9323243 20.3297765,21.9358391 20.3604539,21.9358391 L20.8236323,21.9358391 C21.0197665,21.9358391 21.0886649,21.954417 21.1585691,22.0252141 C21.2561333,22.1221207 21.334587,22.1818714 21.5669305,22.2973559 C21.7374164,22.3832161 21.7967595,22.3556003 21.8304544,22.3350139 C21.8440329,22.3279844 21.8510736,22.3239675 21.8772248,22.3239675 L22.1452749,22.321457 C22.1523156,22.3350139 22.1523156,22.3902456 22.1513097,22.4263973 C22.1503039,22.4705827 22.1492981,22.5207933 22.155333,22.5725103 C22.1714261,22.7136023 22.2111558,22.8180405 22.2287576,22.8567027 L22.2287576,23.0620643 C22.2287576,23.2322785 22.259435,23.2950418 22.3680631,23.3236619 C22.3786242,23.3342061 22.4103074,23.3803999 22.4349499,23.4180579 C22.6029212,23.6645923 22.7884943,23.9096204 22.9811081,23.8739708 C23.1184021,23.8508739 23.1827743,23.823258 23.195347,23.7168114 C23.1983645,23.6972292 23.1993703,23.6811618 23.2159662,23.6580649 C23.2984432,23.5335425 23.3180566,23.2307722 23.3200682,23.1966289 C23.3220799,23.1785531 23.3150391,23.1609793 23.304981,23.1459161 C23.2702803,23.1017307 23.173219,22.9731914 23.146062,22.9184618 C23.1148817,22.8546943 23.0414571,22.6232231 23.0238553,22.514266 L23.0132943,22.4459795 C22.9911663,22.3043854 22.9750732,22.2069767 22.9403726,22.1572681 C22.9313202,22.1326649 22.9333319,22.0307372 22.9358464,21.9574297 C22.938361,21.8670505 22.9403726,21.7641186 22.9318232,21.6707268 C22.921765,21.5602633 22.9479162,21.5246137 22.9755762,21.4869557 C22.9931779,21.4633567 23.0127914,21.4377493 23.0223466,21.3995892 C23.0288844,21.3734796 23.0977828,21.3072016 23.1309748,21.2740625 C23.1671842,21.2399193 23.1973586,21.2097929 23.2164691,21.1826791 C23.2255215,21.168118 23.2662571,21.1324684 23.2989461,21.1043505 C23.3643241,21.0486166 23.4442865,20.9788238 23.4945773,20.9055162 C23.5317925,20.8487782 23.6047142,20.8116223 23.6892028,20.7694453 C23.7384878,20.7453442 23.7902873,20.7192347 23.8415839,20.6881041 C23.9170202,20.6399018 23.9743517,20.5977249 24.0321861,20.5540416 C24.0849915,20.513873 24.1393055,20.4742066 24.2117243,20.429017 C24.2921896,20.3778021 24.306774,20.3682621 24.3213583,20.3290978 C24.3243757,20.3200599 24.333931,20.2939503 24.421437,20.1930269 C24.5587309,20.0368717 24.5411291,19.9560326 24.4687104,19.8751934 C24.4460795,19.8495859 24.438033,19.8400459 24.4400446,19.8174511 C24.4506057,19.6457306 24.5184983,19.2555938 24.5758298,19.1546703 C24.6034897,19.1682272 24.6180741,19.1727462 24.6386933,19.1727462 C24.645734,19.1727462 24.6653474,19.1697335 24.6708794,19.167223 C24.6824463,19.1642104 24.7121179,19.1571809 24.8132024,19.1657167 C24.8604758,19.1697335 24.8896445,19.1722441 24.9077492,19.1722441 C24.9233393,19.1722441 24.9716185,19.1722441 24.9942494,19.1280587 C25.017886,19.0853796 24.9932435,19.0487258 24.9826825,19.0326584 C24.9680981,19.0095615 24.9494905,18.9839541 24.979665,18.9201865 C25.0279442,18.814242 25.0797437,18.7660398 25.1260113,18.7238628 C25.1612149,18.6907238 25.1994359,18.6560784 25.2210609,18.6028551 C25.2582761,18.5089612 25.2954913,18.4160714 25.351817,18.2473636 C25.4041195,18.0922126 25.4041195,18.0922126 25.5082215,17.9546354 C25.5298465,17.9235048 25.5605239,17.9265175 25.6183583,17.9285259 C25.7325185,17.9365596 25.88842,17.9460996 26.1388682,17.7673496 C26.4109415,17.5735365 26.4109415,17.5735365 26.3923339,17.5137858 C26.3873048,17.5027394 26.380767,17.4901868 26.3656798,17.4796425 C26.3762409,17.4304361 26.3697031,17.3957907 26.3626624,17.3656643 C26.3586391,17.3460822 26.3546158,17.3265 26.3546158,17.3008926 C26.3546158,17.260724 26.3762409,17.1949481 26.3938427,17.1412226 C26.4134561,17.086493 26.4280404,17.0413034 26.4270346,17.0126833 C26.4370928,16.9910928 26.5034766,16.9363631 26.5537674,16.8971988 C26.5763983,16.8786209 26.600035,16.8600429 26.6236717,16.8404608 C26.6845235,16.789748 26.7141951,16.780208 26.7760528,16.7591195 C26.813268,16.7470689 26.8585298,16.7315036 26.9213933,16.7033856 C27.0551668,16.6441371 27.1346263,16.5838843 27.1874317,16.5437157 C27.202016,16.5321673 27.2160974,16.5211209 27.2286701,16.5140914 C27.2523068,16.4975219 27.2709144,16.4759313 27.2945511,16.4483155 C27.3448419,16.3930837 27.4232956,16.3042108 27.6108803,16.17768 C27.5872436,16.2098148 27.5706477,16.2364264 27.5626011,16.258017 C27.5585779,16.2680592 27.5233743,16.3112403 27.4947085,16.3448815 C27.3835658,16.4809524 27.2166003,16.6843056 27.2648795,16.9062367 C27.2804697,16.9825569 27.306118,17.100552 27.4061967,17.100552 C27.4444177,17.100552 27.4761009,17.0809698 27.5092929,17.0593793 C27.5455023,17.0367845 27.5867407,17.0106749 27.645581,17.0011349 C27.87541,16.95946 28.2053177,16.6280696 28.269187,16.5231293 C28.2867888,16.4945093 28.389885,16.4021216 28.4658241,16.3338351 C28.7122491,16.1134103 28.7977435,16.0300606 28.7771242,15.9502257 C28.7615341,15.8854539 28.7605283,15.8016021 28.7605283,15.8011 C28.7605283,15.7694673 28.739909,15.7413493 28.7102375,15.7313072 C28.7082258,15.7303029 28.5452836,15.6755733 28.3310447,15.5686246 C28.1917392,15.4988318 28.2143701,15.5028486 28.1580443,15.5088739 C28.1474833,15.5088739 28.1087593,15.5058613 27.9850439,15.471718 C27.9644247,15.4656927 27.9468229,15.4611738 27.9312328,15.4566548 C27.935256,15.4044357 27.9000525,15.358744 27.8723925,15.3276134 C27.7949447,15.2387405 27.7818691,15.2256858 27.7426422,15.2256858 C27.7240346,15.2256858 27.705427,15.2357279 27.6898369,15.2482806 C27.6858136,15.2472763 27.6807845,15.2462721 27.6732409,15.2432595 C27.6848078,15.2196605 27.6878253,15.1950572 27.6878253,15.1734667 C27.6878253,15.1584035 27.6898369,15.1528803 27.7527004,15.1177328 C27.8195872,15.0780664 27.9226833,15.0178136 28.0111952,14.8717006 C28.116303,14.6939548 28.1565356,14.6281788 28.0514278,14.5433228 C28.0378493,14.5327786 28.0217562,14.5197238 28.0041545,14.4981332 C27.9709625,14.4579647 27.9277124,14.4167919 27.8608256,14.4167919 C27.8331657,14.4167919 27.8085232,14.4238214 27.782372,14.431353 C27.7471684,14.4413952 27.7019067,14.4529436 27.6330083,14.4529436 C27.4544759,14.4529436 27.4031793,14.4685089 27.2135829,14.525247 L27.0752832,14.5669218 C26.9053002,14.6171325 26.8836752,14.6236599 26.8786461,14.6798958 C26.873617,14.7095201 26.9002711,14.7356297 26.9259194,14.7501908 C26.9259194,14.751195 26.9249136,14.7627434 26.9053002,14.7928698 C26.8147768,14.9299449 26.8137709,14.9309491 26.7886255,14.9485229 C26.775047,14.9570587 26.7599598,14.9676029 26.7358202,14.9871851 C26.6769799,15.0348852 26.6151222,15.0835896 26.3742292,15.1207455 C26.3908252,15.085598 26.3928368,15.0845938 26.4018892,15.0725432 C26.4184852,15.0529611 26.4531858,15.0127925 26.5472296,14.8762195 C26.64932,14.7291023 26.682009,14.7065075 26.7081602,14.6879295 C26.7388376,14.6673432 26.763983,14.647761 26.8052215,14.5890145 C26.8524949,14.5232385 26.9349718,14.4840742 27.0224778,14.4429015 C27.0803122,14.4142814 27.1411641,14.3861634 27.1944724,14.3475012 C27.2633708,14.2987969 27.3141645,14.2952821 27.3996589,14.2897589 C27.4509555,14.28524 27.5057725,14.2812231 27.5746709,14.2681684 C27.6435693,14.2541094 27.7506888,14.2521009 27.8366861,14.2521009 C27.8945205,14.2521009 27.957384,14.2536073 28.023265,14.2546115 C28.1746403,14.257122 28.3426116,14.2591304 28.5055539,14.2510967 C28.8118249,14.2355314 28.8631215,14.2079156 28.9320199,14.1059879 C28.9410723,14.092431 28.9516334,14.0758615 28.9662177,14.0582878 C29.0693139,13.9347695 29.183474,13.7012899 29.221695,13.5692359 C29.2352735,13.5185231 29.2568986,13.508481 29.2926051,13.4914094 C29.320265,13.4773504 29.3544628,13.4602788 29.3791053,13.423625 C29.386146,13.4115744 29.4037478,13.3929965 29.424367,13.3704017 C29.5334981,13.2478876 29.6305593,13.1293905 29.6119517,13.0194291 C29.5923383,12.9009319 29.5697074,12.764861 29.4480037,12.6920556 C29.3891634,12.6569081 29.3323348,12.6408407 29.2664538,12.623267 C29.2136485,12.6082038 29.1497792,12.5901279 29.0673022,12.5569889 L29.0210347,12.5394151 C28.9923689,12.5278667 28.9642061,12.5188288 28.9642061,12.5223435 C28.9611886,12.5143098 28.9632002,12.4866939 28.9642061,12.4615886 C28.9642061,12.4369854 28.9662177,12.4058548 28.9662177,12.3671926 C28.9662177,12.2486954 28.9662177,12.1934637 28.8907815,12.1934637 C28.8575895,12.1934637 28.8238947,12.228109 28.8143394,12.2602438 C28.7751126,12.2436743 28.7172782,12.2180669 28.6513972,12.1879405 C28.5472952,12.1422488 28.4215682,12.0865149 28.3104255,12.0403211 C28.1937508,11.9911147 28.1570385,11.9835831 28.1127826,11.9835831 L28.0891459,11.9835831 C28.0655092,11.9835831 28.0303057,11.9810725 27.9468229,11.9619925 C27.842721,11.9383935 27.8024883,11.8168837 27.760244,11.6597243 C27.7356015,11.5703493 27.7139765,11.4925228 27.6687147,11.4458269 C27.6274763,11.4056583 27.5706477,11.2831443 27.5153278,11.164145 C27.4625224,11.0486605 27.4072025,10.9276528 27.3453448,10.8302441 C27.3051122,10.7674808 27.2724231,10.712249 27.2422487,10.6610342 C27.1743561,10.5470559 27.1215507,10.4571788 27.0390738,10.3743313 C26.9918004,10.3276353 26.9731928,10.3085553 26.9359776,10.3085553 C26.9083177,10.3085553 26.8605414,10.3206058 26.8545065,10.4034534 C26.8535007,10.4370946 26.8494774,10.4938326 26.7966721,10.5696507 C26.7232475,10.674591 26.7131893,10.6881479 26.7358202,10.7298228 C26.7398434,10.7383586 26.7448725,10.744886 26.7514103,10.7509112 C26.7061486,10.7880671 26.6432851,10.8342609 26.5774041,10.8764379 C26.5175581,10.8458094 26.4023921,10.7900756 26.3033192,10.7619576 C26.162002,10.7212869 26.0292343,10.6404478 25.910548,10.5214485 C25.8507019,10.4616978 25.8537193,10.4446262 25.8672979,10.387386 C25.8778589,10.3416943 25.8929462,10.2794331 25.8753444,10.189556 C25.8496961,10.0635272 25.8401408,10.0113081 25.7486115,10.0047808 C25.7385534,10.0037765 25.7279923,10.0032744 25.713408,9.99875547 C25.8154983,10.0123124 25.9482661,9.98319017 26.1288101,9.90184889 C26.2309004,9.85565508 26.2791796,9.83707713 26.3008047,9.83004764 C26.3304762,9.84862558 26.3792583,9.85465086 26.4843661,9.83255817 C26.5532645,9.81849918 26.6483142,9.789377 26.670945,9.71155047 C26.6955875,9.62920497 26.6297066,9.56242479 26.5718721,9.50518463 C26.556282,9.488113 26.539686,9.4725477 26.5266104,9.45547607 C26.4607294,9.37262847 26.3656798,9.34049365 26.2474964,9.2993209 C26.2374382,9.29630826 26.2298946,9.29279352 26.2198364,9.28978088 C26.3847903,9.28927877 26.5477325,9.27220714 26.7121835,9.22099226 C26.8223204,9.18735112 26.8831723,9.13513203 26.8987624,9.06483709 C26.9193816,8.97094315 26.840928,8.89863979 26.8318756,8.8916103 C26.8248349,8.88558502 26.8172913,8.88106606 26.8092448,8.87805342 C26.8062273,8.8765471 26.5195697,8.76809206 26.2374382,8.53862932 C26.0765076,8.40757948 26.0528709,8.37192991 26.0518651,8.35084143 C26.0518651,8.33577823 26.0528709,8.31569397 26.0468361,8.2880781 C26.0790222,8.28456335 26.1559671,8.29058863 26.2087725,8.29510759 C26.2399528,8.29862234 26.2776709,8.29862234 26.2821971,8.30113287 C26.3058337,8.30464762 26.3717147,8.3709257 26.4255259,8.424149 C26.4697818,8.46833439 26.5215813,8.52055348 26.5844448,8.57779364 C26.6503258,8.63603801 26.6945817,8.66064124 26.7358202,8.66064124 C26.7574452,8.66064124 26.7946604,8.64457382 26.8087419,8.6280043 C26.8459571,8.58432103 26.835396,8.52055348 26.824332,8.46481964 C26.8223204,8.45076066 26.8193029,8.43820799 26.8193029,8.43067639 C26.8193029,8.35837303 26.7388376,8.03049739 26.6669218,7.83266736 C26.6020466,7.6544195 26.4235142,7.6544195 26.3465693,7.6544195 L26.2806883,7.65492161 C26.2324091,7.65492161 26.2158132,7.65090475 26.2097783,7.64739001 C26.1192548,7.5936646 25.7647046,7.27131212 25.7375476,7.23415623 C25.729501,7.21306775 25.71894,7.11515695 25.7098876,7.03632621 C25.669655,6.6964 25.6344514,6.45086985 25.5303494,6.37655806 C25.4624568,6.32835582 25.390038,6.29521678 25.3181222,6.26308196 C25.2462063,6.23094713 25.1778108,6.20031863 25.12752,6.15814167 C25.0706914,6.11044154 25.0048104,6.06374562 24.9379236,6.01654759 C24.8740543,5.97135799 24.8121966,5.92616839 24.7573796,5.88097879 C24.7091005,5.84081026 24.6583067,5.78959538 24.6070101,5.73988682 C24.5401233,5.67511507 24.4722307,5.60733067 24.4113788,5.56364739 C24.3153234,5.49385456 24.2056894,5.42054699 24.0784537,5.33970782 C23.9421656,5.25334548 23.6424323,5.23577174 23.4146149,5.23577174 C23.2054052,5.23577174 22.9534482,5.40146694 22.7879914,5.51042408 C22.7588228,5.52950414 22.7321686,5.54657576 22.7095378,5.56063475 C22.6310841,5.61084541 22.6064416,5.62540651 22.5943718,5.70473936 C22.5883369,5.74691632 22.5757642,5.83378077 22.4776971,6.0552098 C22.3922027,6.24902297 22.3771155,6.32936004 22.4123191,6.38308545 C22.4279092,6.40869289 22.467639,6.43329612 22.5395548,6.42727084 C22.5476013,6.42526241 22.5561508,6.42526241 22.565706,6.4322919 C22.5833078,6.52116478 22.5918573,6.56083121 22.6250492,6.57237966 C22.6496917,6.61154398 22.6848953,6.64418091 22.7221105,6.67731995 C22.7769275,6.72753061 22.839791,6.78326445 22.8870643,6.87565208 C22.9293086,6.96301864 22.9262912,6.97004813 22.9157301,6.99314504 C22.905169,7.01875247 22.8870643,7.05892101 22.8785149,7.12921594 C22.8674509,7.2391773 22.8392881,7.27783951 22.7744129,7.36972503 C22.7537937,7.39734089 22.7311628,7.42847151 22.7055145,7.46663161 L22.6768487,7.510817 C22.6265579,7.58512878 22.6265579,7.58512878 22.5797875,7.60119619 L22.5325141,7.61826782 C22.5470984,7.43951785 22.5581624,7.24018151 22.5425723,7.18946874 C22.5395548,7.17992871 22.5365374,7.15984445 22.5350286,7.14377703 C22.5294967,7.09206005 22.5189356,6.98410712 22.4208685,6.98410712 C22.401758,6.98410712 22.3836533,6.98862608 22.3645428,6.9981661 C22.352473,7.00419138 22.3388945,7.01172298 22.3263218,7.01825037 C22.2996676,7.03331357 22.2634583,7.05540626 22.2398216,7.04486202 C22.21015,6.99615768 22.2081384,6.97958816 22.2066296,6.9826008 C22.221214,6.94946176 22.2081384,6.90929322 22.1759522,6.88971106 C22.0854288,6.83548355 21.9933966,6.76870336 21.9793152,6.75112963 C21.9773035,6.73656853 21.9944024,6.69238315 22.0150216,6.66175464 C22.0607863,6.59246392 22.1382341,6.46643515 22.1382341,6.39915286 L22.1372283,6.20383337 L22.1010189,5.97437063 L22.1010189,5.77352797 L22.221214,5.6926888 L22.4988193,5.58172323 C22.5209472,5.5721832 22.5375432,5.55360526 22.5430752,5.52950414 L22.5953776,5.30255193 L22.6768487,5.18204633 C22.7920147,5.1870674 23.113373,5.19861585 23.173722,5.19861585 C23.2109372,5.19861585 23.3346526,5.20363692 23.458368,5.20765377 C23.584095,5.21267484 23.709822,5.2176959 23.7470372,5.2176959 C23.8662264,5.2176959 23.9140027,5.03995015 23.9305987,4.93450775 C23.9346219,4.91090874 23.9280841,4.88680762 23.9109853,4.86973599 C23.8893602,4.84914962 23.698758,4.66387226 23.5252547,4.66387226 L23.0630822,4.66387226 C23.0590589,4.66387226 23.0560415,4.66387226 23.0525211,4.66387226 C23.0469891,4.64127746 23.0359251,4.61717634 23.0183233,4.59307522 C23.0525211,4.58805416 23.096777,4.58554362 23.1289631,4.5840373 C23.2421175,4.5760036 23.3135304,4.57048042 23.3608038,4.54186035 C23.3608038,4.54186035 23.370359,4.53683928 23.4005335,4.53683928 C23.4945773,4.53683928 23.6519876,4.58554362 23.7123366,4.6066321 C23.7188744,4.60813842 23.8928806,4.64479221 24.0477763,4.62571216 C24.0608519,4.62420584 24.0724188,4.62269952 24.0859973,4.62269952 C24.1000787,4.63173744 24.1176805,4.63374586 24.1322648,4.63525218 C24.1619364,4.63324376 24.1870818,4.61315949 24.1981458,4.58504152 C24.2745878,4.35909352 24.284646,4.2893007 24.2831373,4.25967641 C24.2876634,4.2516427 24.3107972,4.23607739 24.3273932,4.22603526 C24.3595793,4.20344046 24.4018236,4.17482038 24.4294835,4.13013289 C24.481786,4.04678318 24.4571435,3.86251004 24.4430621,3.78317719 C24.4626755,3.72593703 24.5225215,3.55220813 24.5376088,3.50852485 C24.5552106,3.47990477 24.6633358,3.41262248 24.7045743,3.38701504 L24.749836,3.35839496 C24.8413653,3.29864427 24.9716185,2.91704321 24.9867057,2.84925881 C24.9992784,2.77795967 24.9947523,2.68707836 24.990729,2.59770338 C24.9887174,2.55803695 24.9867057,2.51987685 24.9867057,2.48372517 C24.9867057,2.32556157 24.8031443,2.27434669 24.6683649,2.23668869 L24.6376875,2.22815288 C24.547164,2.20154123 24.4616697,2.23518237 24.3912625,2.27032984 C24.3470066,2.29141832 24.3057681,2.31150258 24.2559802,2.31802997 C24.1372939,2.33309317 23.983404,2.43100397 23.8581799,2.5088305 C23.8088949,2.539459 23.7651419,2.56807908 23.7334587,2.5841465 C23.6157782,2.64289298 23.4498185,2.77143228 23.0721345,3.07269627 C22.768378,3.31471168 22.8578957,3.50701853 22.916233,3.63455362 C22.9358464,3.67873901 22.9564656,3.71991175 22.9524424,3.75003815 C22.9303144,3.94736607 23.0555385,4.0332263 23.1400271,4.05682532 C23.146062,4.07389694 23.151594,4.10653388 23.1536056,4.14017502 C23.0339135,4.20595099 22.8986312,4.26971854 22.8433113,4.2817691 C22.768378,4.20795942 22.5908514,4.12712025 22.5259763,4.11055073 C22.5199414,4.10904441 22.5028425,4.10753809 22.4973105,4.10753809 C22.4766913,4.10753809 22.4087987,4.11456758 22.3901911,4.20745731 C22.385162,4.23708161 22.3841562,4.27524171 22.3841562,4.31440603 C22.3841562,4.34704296 22.385162,4.38168832 22.3786242,4.40779787 C22.3544846,4.52930768 22.5174269,4.61466581 22.6436568,4.66236594 C22.648183,4.70554711 22.6547208,4.77935679 22.6547208,4.86571914 C22.6547208,4.89936028 22.6532121,4.9159298 22.6547208,4.92145298 C22.6517033,4.92145298 22.6461713,4.92145298 22.6386277,4.92145298 L22.5812962,4.92145298 C22.4580837,4.92145298 22.3896882,4.96011519 22.276031,5.02589116 L22.2478681,5.04095436 C22.1492981,5.09769241 22.1186207,5.15091572 22.0874404,5.20564534 C22.0723532,5.23326121 22.0562601,5.26188129 22.0255827,5.29803297 C21.9757948,5.35728155 21.9421,5.4059859 21.9028731,5.46272395 C21.8666638,5.51393883 21.8264311,5.57268531 21.7645734,5.65101395 C21.679079,5.76197952 21.7152884,5.84834186 21.7399309,5.90608413 C21.7625618,5.96181797 21.7711112,5.98340855 21.6996983,6.04818031 C21.5639131,6.17119644 21.5226746,6.22441975 21.4703722,6.29119993 C21.4427122,6.3263474 21.4120348,6.36551172 21.3607382,6.42275188 C21.2898281,6.50308894 21.2712205,6.52467953 21.2772554,6.5678607 C21.2807758,6.58894918 21.3029037,6.61857347 21.3210084,6.63012192 C21.3401189,6.64116827 21.3421306,6.70995688 21.3421306,6.73054325 C21.3421306,6.91933536 21.4140464,6.98561344 21.4668518,7.03281146 C21.4925001,7.05540626 21.5030612,7.06645261 21.5080903,7.08503055 C21.4925001,7.09758322 21.47691,7.11465485 21.4633314,7.13674754 L21.4537762,7.15331706 C21.4065028,7.23114359 21.388901,7.26076788 21.2943543,7.33959863 C21.2651856,7.36420185 21.2546246,7.37323977 21.2420519,7.38026927 C21.2204268,7.38830297 21.1801942,7.40336617 21.0454148,7.48018849 C21.0232868,7.49274116 21.0051821,7.50228118 20.9905978,7.50981278 C20.9875804,7.45407894 20.9689728,7.2843669 20.8382166,7.22009724 C20.7909433,7.19649823 20.7763589,7.18846452 20.7517164,7.18846452 C20.7250623,7.18846452 20.6948878,7.20854879 20.6808064,7.23064148 C20.6808064,7.23064148 20.6692395,7.24068362 20.622972,7.25072575 C20.5837451,7.25976367 20.5455241,7.26779738 20.5249049,7.26679316 C20.5113264,7.25825735 20.4942275,7.24821522 20.4630472,7.23566255 C20.4358901,7.22562042 20.4052128,7.21457407 20.3695063,7.20252351 C20.2840119,7.17390343 20.1789041,7.13724965 20.064241,7.07398421 C19.9666769,7.01925458 19.9365024,7.01122088 19.9023046,7.00419138 C19.8897319,7.00117874 19.8786679,6.99917032 19.839944,6.98059237 C19.7569642,6.9374112 19.7398653,6.91431429 19.6694582,6.8169056 L19.6448157,6.78175813 C19.6055888,6.7260243 19.5583155,6.71497795 19.5261294,6.71497795 C19.4356059,6.71497795 19.3651988,6.80535715 19.3073643,6.87866472 C19.2932829,6.89724266 19.2726637,6.92385432 19.2671317,6.92887538 C19.237963,6.94644912 19.0775353,6.99565557 18.9171076,7.04184938 C18.9035291,6.95749546 18.810994,6.91883325 18.7048804,6.91883325 C18.7038746,6.91883325 18.7008571,6.91883325 18.6988455,6.91883325 C18.6978397,6.91933536 18.5369091,6.95347861 18.3639087,6.95347861 C18.3030568,6.95347861 18.2618183,6.95548704 18.2321468,6.95749546 L18.1949316,6.95849968 C18.1798443,6.95849968 18.1798443,6.95849968 18.1642542,6.94845754 C18.1562076,6.94042384 18.1481611,6.91130165 18.1441378,6.87966893 C18.252766,6.80234451 18.307583,6.73355589 18.307583,6.67681784 C18.307583,6.61405451 18.2899812,6.53873851 18.2864608,6.52970059 C18.2849521,6.51965846 18.2794201,6.51011843 18.2738881,6.50158262 L18.1386059,6.32835582 C18.0440591,6.23496399 17.9334193,6.1154626 17.918835,6.08784674 C17.8876547,6.02910026 17.8051778,5.99194437 17.7443259,5.97236221 C17.7337648,5.89905463 17.7146543,5.75143528 17.7146543,5.62339808 C17.7146543,5.48531875 17.6301657,5.39895641 17.4923689,5.39895641 C17.4722526,5.39895641 17.4546508,5.40196905 17.4516334,5.40247115 L17.1785542,5.40247115 C17.0835046,5.40247115 17.0151091,5.42757648 16.9547601,5.45017128 C16.9255915,5.46071552 16.8989373,5.47176187 16.8682599,5.47778715 C16.8169633,5.48833139 16.7591289,5.48481664 16.6670967,5.481804 C16.6002099,5.47879136 16.5147155,5.47628083 16.4020641,5.47628083 C16.2366073,5.47628083 16.2029125,5.55410736 16.1938601,5.62992547 C16.1918485,5.63795917 16.1898369,5.64950763 16.189334,5.65252027 C16.189334,5.65252027 16.1722351,5.66708136 16.0892553,5.66507293 C16.0892553,5.6550308 16.090764,5.64348235 16.0927756,5.63193389 C16.1028338,5.56917056 16.1164123,5.47527662 16.0837233,5.37987635 L16.0676302,5.32364041 C16.0344383,5.22171276 15.9997376,5.11576825 15.9489439,5.03191644 C15.915752,4.9761826 15.8956356,4.89584554 15.8755193,4.81199373 C15.8659641,4.77483783 15.8569117,4.73717983 15.8458477,4.69901973 C15.8352867,4.66286805 15.8287489,4.63726061 15.8247256,4.61567002 C15.8111471,4.55441301 15.8015918,4.52077187 15.7472777,4.42336317 C15.7140858,4.36662512 15.6718415,4.31038918 15.6316089,4.25766798 C15.5793064,4.18687094 15.5300214,4.12159707 15.5119167,4.06837377 C15.4872742,3.99205356 15.4460358,3.91523124 15.3364018,3.91523124 C15.3112564,3.91523124 15.2820877,3.91924809 15.2443696,3.92577548 C15.204137,3.93280497 15.1825119,3.92979233 15.1639043,3.92778391 C15.1176368,3.92477127 15.0854506,3.92577548 15.0105173,3.95238713 C15.0049854,3.95238713 14.9949272,3.94837028 14.9828574,3.94535764 C14.9320637,3.92979233 14.8334937,3.91422703 14.6851358,3.94435343 C14.5619233,3.97096508 14.453798,4.02067364 14.3678008,4.06084217 C14.3029256,4.09147068 14.2420737,4.11908654 14.2048585,4.11908654 C14.2048585,4.11908654 14.2038527,4.11908654 14.2028469,4.11908654 C14.12037,4.06988009 14.0409105,4.07640748 13.9599423,4.09598964 C13.9408318,4.1005086 13.9182009,4.10603177 13.8935584,4.10954652 C13.8347182,4.11958865 13.8040408,4.1236055 13.7728605,4.1763267 C13.7622994,4.19641097 13.7376569,4.23708161 13.6345607,4.33147766 C13.5007872,4.45298747 13.4816767,4.48110544 13.4585429,4.51273816 C13.4449644,4.53232032 13.4308829,4.55290669 13.3720427,4.60964474 C13.2729698,4.70956397 13.2523505,4.76178306 13.2367604,4.81450426 C13.2322342,4.83308221 13.2292168,4.84262223 13.2176499,4.85818754 C13.1869725,4.89835607 13.1703765,4.90638978 13.1291381,4.92396351 C13.1236061,4.92546983 13.118577,4.92848247 13.1145537,4.9304909 C13.1115363,4.9159298 13.1105305,4.89885818 13.1105305,4.88429708 C13.1105305,4.87626338 13.1085188,4.86772756 13.1055014,4.86120018 L13.0878996,4.80546634 C13.0778414,4.77533994 13.0466611,4.72563138 12.9546289,4.72563138 C12.9023265,4.72563138 12.8409717,4.74119669 12.7771024,4.7572641 C12.7303319,4.76831045 12.6890935,4.79391789 12.6453404,4.82052954 C12.604102,4.84563487 12.5628635,4.87174442 12.5130756,4.88831394 C12.4260725,4.91743612 12.3858399,4.94706042 12.335549,4.98522052 C12.3134211,5.00229215 12.2882757,5.0213722 12.2540779,5.043967 C12.1499759,5.11375983 12.1871911,5.25585601 12.2203831,5.38088057 C12.2334587,5.4361123 12.2530721,5.50891776 12.2505576,5.55209894 C12.2299383,5.54707787 12.2063017,5.54506944 12.1746184,5.5495884 C12.1011939,5.56063475 12.0574409,5.57670216 12.0061442,5.59628432 C11.9598767,5.61385805 11.9020422,5.63544864 11.7974374,5.66206029 C11.7340709,5.6776256 11.7018848,5.67862981 11.6707045,5.67963403 C11.6611493,5.67260453 11.64053,5.65703923 11.6093497,5.65703923 C11.6002974,5.65703923 11.5771636,5.66105608 11.5701229,5.66406872 C11.5112826,5.68314877 11.3433113,5.75746056 11.1682993,5.85436714 C11.082302,5.90256938 11.0672148,5.90457781 11.0425723,5.90759045 C11.0199414,5.91110519 10.9877553,5.91612626 10.9188569,5.9417337 C10.8077142,5.98340855 10.7554117,6.04617188 10.6824901,6.13253423 C10.6437661,6.17973225 10.5959899,6.23697241 10.5230682,6.30927577 C10.3716928,6.46040987 10.3314602,6.66928624 10.2992741,6.83749197 C10.2846897,6.91331008 10.2706083,6.98611554 10.2484803,7.03431778 C10.1986924,7.14578546 10.2057332,7.20754458 10.2127739,7.26679316 C10.2167971,7.30595748 10.2208204,7.34311337 10.2097564,7.40386828 L10.206739,7.40386828 C10.1836052,7.40386828 10.1604714,7.41089777 10.135326,7.42244623 L10.0885556,7.44604524 C10.0865439,7.44704945 10.0845323,7.44755156 10.0835265,7.44805367 C10.0784974,7.45106631 10.0719596,7.45407894 10.0608956,7.45960212 C10.0236804,7.47818006 9.99501465,7.50228118 9.97037215,7.52336966 C9.93969476,7.55098553 9.92460751,7.56253398 9.90851445,7.56253398 C9.82100844,7.56253398 9.65957493,7.65592582 9.61381029,7.68203537 C9.55597586,7.71417019 9.43879827,7.76538507 9.3724144,7.76538507 C9.28692002,7.76538507 9.24568155,7.8055536 9.21550706,7.8351779 C9.19337911,7.8577727 9.1808064,7.87132958 9.14007084,7.87735486 C9.01585254,7.89492859 8.98316351,7.89492859 8.87352954,7.89492859 C8.80764858,7.89492859 8.77747409,7.93007605 8.76540429,7.95267085 C8.72366292,8.02597843 8.77596536,8.13393136 8.80966021,8.19217573 C8.8212271,8.21175789 8.84285215,8.22531477 8.86648883,8.22631898 C8.87906153,8.22832741 9.26529497,8.26397698 9.41918485,8.24489693 C9.57408055,8.22531477 9.63593825,8.20472839 9.74758385,8.1675725 C9.7878165,8.15501984 9.85168584,8.14598192 9.91354353,8.136944 C10.0146281,8.12338712 10.1207417,8.10882602 10.1876285,8.06865749 C10.2685967,8.02095736 10.4461232,7.91702128 10.4903791,7.89091173 C10.545699,7.87986539 10.7684873,7.83467579 10.8338654,7.81810627 C10.9284121,7.79450726 10.9766913,7.69308171 10.9912756,7.6544195 L11.0481043,7.58462668 C11.1014125,7.55851713 11.1577382,7.53240758 11.2120523,7.50780436 C11.1944505,7.56002345 11.186404,7.61876993 11.1788604,7.66797638 C11.1758429,7.69157539 11.1728255,7.71316598 11.1693051,7.72873129 C11.1627673,7.75032187 11.1718197,7.7904904 11.1853982,7.80806414 C11.2165785,7.84823267 11.2718984,7.85325374 11.3161543,7.85325374 C11.3820352,7.85325374 11.4675296,7.84070107 11.5359251,7.83015683 C11.5701229,7.82463366 11.5982857,7.8206168 11.6113614,7.8206168 C11.6757336,7.8206168 11.8009577,7.75684926 11.8613067,7.72270601 C11.8859492,7.71216177 11.9674203,7.67550798 12.0373245,7.62027625 C12.0498972,7.71969337 12.0639787,7.85526216 12.0745397,7.98279725 C12.1087375,8.15351352 12.1404207,8.36841516 12.1303625,8.41511108 C12.1127607,8.50046921 12.1806533,8.60289897 12.2515634,8.71135401 C12.2872699,8.76708785 12.3244851,8.82432801 12.3370578,8.85947547 C12.3617003,8.9367999 12.4220492,9.11655408 12.4084707,9.16927528 L12.4029387,9.19187008 C12.3878515,9.25563762 12.3702497,9.32844309 12.3290112,9.38267061 C12.2933048,9.43037074 12.2807321,9.52225626 12.2606157,9.68142407 C12.2490488,9.77632222 12.2294354,9.93649425 12.2063017,9.96611854 C12.1449469,10.0278777 12.1474614,10.1011852 12.1504789,10.1785097 C12.1534963,10.2407709 12.1555079,10.31207 12.1313683,10.4069682 C12.0876153,10.5847139 12.1353916,10.6811184 12.1781388,10.7293207 L12.1328771,10.9582813 C12.1077317,11.0436394 12.0327984,11.2846506 11.9895483,11.371013 C11.930708,11.4859954 11.8934928,11.6180494 11.892487,11.6240747 C11.8894695,11.6336147 11.8884637,11.6446611 11.8894695,11.6547032 C11.9100888,11.7917783 11.90858,12.0106968 11.8411904,12.0684391 C11.8195653,12.0870171 11.8019635,12.1005739 11.7888879,12.1136287 C11.7878821,12.1146329 11.7873792,12.1146329 11.7858705,12.1156371 L11.7873792,12.1156371 C11.7682687,12.1342151 11.7572047,12.1472699 11.7546902,12.1613288 C11.7194866,12.2180669 11.7013819,12.2989061 11.6807627,12.3917958 C11.6707045,12.4314622 11.662658,12.472635 11.651594,12.510293 C11.6184021,12.623267 11.7013819,12.7774137 11.7732978,12.9134846 C11.7989461,12.962189 11.8301264,13.0219396 11.8341496,13.0440323 C11.8507456,13.1248715 11.8507456,13.207217 11.8361613,13.2699803 C11.8245944,13.3151699 11.8351555,13.3678911 11.8477282,13.4356755 C11.8623125,13.5124978 11.8819259,13.607396 11.8577863,13.6656404 C11.8341496,13.7218763 11.7949228,13.8524241 11.7461407,14.017115 C11.6797569,14.2395483 11.5977828,14.5172133 11.5454804,14.6221536 C11.4700442,14.7722834 11.3166572,14.9896956 11.191936,15.1644287 L11.1250492,15.2588248 C11.0511217,15.3637651 11.0118949,15.4395832 10.9590895,15.5455277 C10.9148336,15.6298816 10.8615253,15.7348219 10.770499,15.8914792 C10.5718503,16.2334138 10.5839201,16.2856329 10.5919666,16.314253 C10.5990073,16.4066406 10.6467836,17.0573708 10.6125858,17.3234874 C10.5748677,17.6267598 10.5944811,18.3171564 10.6125858,18.5390876 C10.6291818,18.7308923 10.6784668,18.7745756 10.7875978,18.8277989 C10.8112345,18.8393473 10.8378887,18.8534063 10.8700748,18.8734906 C10.9761884,18.9397687 10.9852407,18.9483045 11.0636944,19.0391858 C11.0863253,19.0642911 11.1134823,19.0959239 11.1501946,19.1365945 C11.2502733,19.2485643 11.2874885,19.8345227 11.3071019,20.1498457 C11.3171601,20.3049967 11.3236979,20.429017 11.3357677,20.4872614 C11.3699655,20.6584798 11.5389426,20.7714538 11.6168933,20.8156391 C11.6209166,20.8598245 11.6234311,20.9266047 11.6138759,20.9743048 C11.6068352,21.0054355 11.6038177,21.0440977 11.6033148,21.0842662 C11.5972799,21.1530548 11.5927537,21.2394172 11.5615734,21.2705478 C11.5117855,21.3217627 11.5087681,21.3694628 11.514803,21.4015976 C11.5198321,21.4267029 11.5329077,21.4462851 11.5459833,21.4618504 C11.5369309,21.50704 11.5344164,21.5718118 11.564088,21.6320646 C11.5821927,21.6677141 11.5686142,21.7219417 11.5610705,21.737507 C11.5490007,21.7696418 11.5595618,21.8062956 11.5882276,21.8258777 C11.5957712,21.8308988 11.7788298,21.9584339 11.8934928,22.0161762 C12.0076529,22.0739184 12.0368216,22.1010322 12.0408449,22.0929985 C12.0262606,22.1366818 12.0302838,22.2496558 12.0891241,22.7191255 L12.0936502,22.7532687 C12.10572,22.8501753 12.1338829,22.8983775 12.1519876,22.9295082 C12.1645603,22.9510987 12.1665719,22.9541114 12.1665719,22.9656598 C12.1665719,23.0188831 12.2057987,23.0941991 12.2882757,23.2398101 C12.319456,23.2950418 12.3647177,23.375881 12.3707526,23.3909442 C12.3707526,23.4567202 12.439651,23.5270151 12.5744304,23.6033353 C12.5854944,23.6093606 12.5975642,23.6123732 12.6101369,23.6123732 L12.702672,23.6123732 C12.7398872,23.6123732 12.7705646,23.5862637 12.7760966,23.5491078 C12.7821315,23.5089392 12.8143176,23.3020713 12.8143176,23.2433248 L12.8143176,23.0776296 C12.8143176,23.0675875 12.8123059,23.0585496 12.8082827,23.0490095 C12.8072769,23.0459969 12.7630209,22.938044 12.6559015,22.8526858 C12.6076223,22.8145257 12.5668868,22.6829738 12.5543141,22.6141852 C12.5543141,22.5102491 12.5477763,22.3249717 12.5050291,22.2612042 C12.4854157,22.2265588 12.4275812,22.006134 12.3863428,21.8268819 L12.3295141,21.5040274 C12.3295141,21.5040274 12.2364761,21.1882023 12.2173656,21.1324684 C12.2118336,21.1148947 12.2078104,21.0953126 12.2037871,21.073722 C12.1962435,21.0295366 12.1861853,20.974807 12.1580225,20.9195752 C12.1419294,20.8869383 12.1394149,20.7704495 12.1474614,20.6820788 C12.1484672,20.6725387 12.1474614,20.6635008 12.1449469,20.654965 L12.0197227,20.2316891 C12.1021997,20.217128 12.2389907,20.2111027 12.3023571,20.2427355 C12.3295141,20.254786 12.352145,20.2929461 12.3662264,20.3451652 C12.3989155,20.4661729 12.3823195,20.6609903 12.2892815,20.7995717 C12.1303625,21.0395787 12.7444133,21.742528 13.0371059,22.0553405 C13.041632,22.1115764 13.0491757,22.2516642 13.036603,22.3445539 C13.0220186,22.4515026 13.096449,22.5162744 13.151266,22.5629703 C13.1955219,22.6001262 13.2216732,22.6252315 13.2216732,22.650839 C13.2216732,22.7301718 13.3247693,22.9224787 13.5772292,23.3793957 C13.7306162,23.6560565 13.9046224,23.9698732 13.9473696,24.096404 C13.9961517,24.2445255 13.9805615,24.4011828 13.9629597,24.5819412 C13.950387,24.7144973 13.934294,24.8641251 13.9433463,25.0368498 C13.9629597,25.4792058 14.3874142,25.7332717 14.3989811,25.7397991 L14.8430489,26.0536158 C14.8490838,26.0586368 14.8546158,26.0626537 14.8616565,26.0636579 L15.22023,26.1891846 C15.2770586,26.2203152 16.64346,26.9719688 17.223816,27.0638544 C17.3238947,27.0814281 17.420956,27.0884576 17.5175143,27.0884576 C17.6764333,27.0884576 17.8021603,27.0678712 17.9128001,27.0492933 C18.0676958,27.0226816 18.1798443,27.0101289 18.274894,27.057327 C18.5157869,27.1778326 18.9191193,27.6121548 19.1600122,27.8712419 L19.1796257,27.8918282 C19.3169196,28.0399497 19.3898413,28.0700761 19.4617571,28.0700761 L19.5070188,28.0690719 C19.517077,28.0690719 19.5316613,28.0690719 19.5643504,28.088654 C19.6563826,28.1463963 19.7222635,28.1514174 19.8062492,28.1564384 C19.878165,28.1594511 19.9666769,28.1664806 20.1205668,28.2076533 C20.4187913,28.2920072 20.732103,28.9146195 20.732103,29.0235766 C20.732103,29.1561328 20.8045218,29.2706131 20.8935365,29.4147177 C20.9222023,29.4578989 20.951371,29.5061011 20.9830542,29.5588223 C21.0021647,29.5919614 21.0610049,29.6943911 21.1686273,29.6943911 C21.2214326,29.6943911 21.2702147,29.6697879 21.3154765,29.6471931 C21.3637556,29.6225899 21.4135435,29.5959782 21.4723838,29.5959782 C21.5468142,29.5959782 21.6373376,29.7586608 21.6961779,29.8656095 C21.7650763,29.9931446 21.8113439,30.0764943 21.892815,30.0764943 C21.8978441,30.0764943 21.9079022,30.0754901 21.9124284,30.0744859 C21.9768006,30.0619332 22.1734377,30.0589206 22.2659728,30.0579163 C22.3328596,30.0980849 22.5757642,30.2482148 22.6954563,30.3677162 C22.7241221,30.395332 22.7688809,30.3988468 22.7990554,30.3707288 L23.0354222,30.1528145 L23.2858705,29.9544824 L23.4714436,29.8781622 C23.5961648,29.929377 23.7334587,29.9936467 23.7525692,30.0067015 L23.8627061,30.3401003 C23.868741,30.3586782 23.8823195,30.3732393 23.8999213,30.381273 L24.0442559,30.4545806 C24.0512966,30.9536746 24.0336948,31.496954 23.9919535,31.6028985 C23.9436743,31.6264975 23.9155114,31.6606408 23.8943893,31.6862482 C23.8692439,31.7168767 23.8556654,31.7314378 23.8119124,31.7389694 C23.7083133,31.7535305 23.5770543,31.859475 23.4025452,32.0055881 C23.3492369,32.0517819 23.299449,32.0939588 23.261228,32.1210726 C23.16819,32.1868486 23.1098526,32.3545522 23.020335,32.622175 C22.9735645,32.7662796 22.9242795,32.9144011 22.866948,33.0359109 C22.7708926,33.2397662 22.7251279,33.5058827 22.7306599,33.8417921 C22.7306599,33.8849733 22.7553024,33.9251418 22.7889972,33.9788672 C22.8191717,34.0280737 22.8538724,34.0838075 22.8694625,34.1385371 C22.8654393,34.1385371 22.8619189,34.1395413 22.8604102,34.1395413 C22.7864827,34.1591235 22.7326715,34.2525153 22.6501946,34.4041516 C22.6190143,34.462898 22.5848165,34.5236529 22.560677,34.5532772 C22.4937902,34.6366269 22.5083745,34.8013179 22.533017,35.0061774 C22.5390519,35.0588986 22.5445839,35.1060967 22.5445839,35.1347167 C22.5445839,35.2963951 22.7341803,35.4600818 22.910701,35.5193304 C23.0746491,35.5740601 23.7933048,35.9732348 23.8923777,36.1027784 C23.9436743,36.1725712 24.0191105,36.2960894 24.0915293,36.4145866 C24.1724975,36.548147 24.2484366,36.6736736 24.2987274,36.7344285 C24.3656142,36.8137614 24.355556,37.0020514 24.3037565,37.0934348 C24.2333494,37.211932 24.344995,37.2897585 24.4118818,37.3354502 C24.4611667,37.3705977 24.5109547,37.405243 24.5285564,37.4509347 C24.5687891,37.555875 24.6256177,37.5960436 24.6668562,37.6256679 C24.6945161,37.6462542 24.7070888,37.6552921 24.7141295,37.6748743 C24.738772,37.7336208 24.7915774,37.7973883 24.8534351,37.8701938 C24.9027201,37.9259276 24.9575371,37.9906994 24.9967639,38.0564754 C25.1099182,38.2347232 25.6088031,38.4225111 25.850199,38.4420933 C26.1398741,38.4636839 26.7499016,38.638417 26.8032099,38.7970827 C26.8761315,39.0375918 26.5281191,42.2174332 26.3344995,42.4599507 C26.3138803,42.4855582 26.2942668,42.5071488 26.2766651,42.5297436 C26.0880745,42.7496663 26.0025801,42.8515939 25.5791315,44.7058738 C25.2668256,46.081646 25.3699217,46.6896972 25.4845848,46.9497884 C25.0053133,46.9794127 24.5240303,46.9999991 24.0377181,46.9999991 C11.3352648,47.0035138 1,36.6837158 1,24.0025101 C1,11.3182918 11.3352648,1 24.0392268,1 C27.585232,1 30.9456641,1.80588118 33.9495343,3.240902 C34.0299996,3.36743288 34.1290725,3.48793848 34.2090349,3.55622498 C34.3035816,3.63806837 34.4081865,3.74401287 34.5097739,3.84694473 C34.6883063,4.02820524 34.8572834,4.19992571 34.9870337,4.25264691 C35.1600341,4.32143552 35.3013513,4.42637581 35.4693226,4.55591933 C35.5990729,4.65634066 36.293589,5.48632296 36.5711943,5.82022389 C36.5867844,5.96081375 36.6908864,6.64167038 37.2893471,6.80435293 C37.9818516,6.99264293 38.2262649,7.16235498 38.3107535,7.247211 C38.4128438,7.34964076 38.4470416,7.37876295 38.6386496,7.31750593 C38.6808939,7.30445116 38.7357108,7.28637532 38.8086325,7.26629106 C39.0148249,7.209553 39.0324266,7.21909303 39.2074387,7.34863655 C39.2692964,7.39432825 39.3457384,7.44955999 39.4528578,7.51634017 C39.528294,7.5635382 39.588643,7.59717934 39.6354135,7.6242931 C39.7983557,7.71668073 39.7983557,7.71668073 39.9024577,7.986312 L39.9220711,8.03451424 C39.9899637,8.20723893 40.03774,8.27100647 40.0714348,8.31268133 C40.1096558,8.36038146 40.1207198,8.37444044 40.1207198,8.69126974 C40.1207198,8.99253374 40.2268334,9.23304282 40.3218831,9.44593605 C40.4053658,9.63422604 40.4787904,9.7969086 40.453645,9.95507219 C40.4279967,10.1293032 40.4576683,10.2769226 40.4823108,10.4069682 C40.5144969,10.5656339 40.5421568,10.7022069 40.4667206,10.8568557 C40.415424,10.9607918 40.3545721,11.041631 40.2997551,11.1129301 C40.2006822,11.2444821 40.0985919,11.380553 40.2288451,11.5447419 C40.2494643,11.568843 40.2640486,11.5894294 40.2771242,11.606501 C40.3666419,11.7229897 40.3842437,11.729015 40.5864127,11.7696856 L40.6975554,11.7922804 C41.1858792,11.8952123 41.7436043,12.0503633 41.887939,12.1658478 C42.0443434,12.2913745 42.0891022,12.5062761 42.0217125,12.6006722 C41.9794682,12.6589165 41.9442647,12.680005 41.838151,12.7402578 C41.750645,12.7909706 41.6178773,12.8657845 41.4106791,13.0068764 C41.2437136,13.1218589 41.1044081,13.1871327 40.9932654,13.2398539 C40.8107098,13.3257142 40.6663751,13.3940007 40.7141514,13.6023749 C40.7624306,13.8092429 41.0244457,14.1135195 41.2170595,14.336957 C41.2653387,14.3926908 41.3085888,14.4429015 41.3387633,14.4810616 C41.4871212,14.6653347 41.5882057,14.8204857 41.6405082,15.0258473 C41.7023659,15.273888 41.7898719,15.4144779 41.9342065,15.4963212 C42.013666,15.5420129 42.0921196,15.5405066 42.1982333,15.5224308 C42.2580793,15.5113844 42.3289894,15.4983297 42.4280623,15.5073676 C42.4909258,15.5113844 42.56083,15.5133929 42.6292255,15.5133929 L42.8484935,15.5113844 C42.9752263,15.5113844 43.0104299,15.518916 43.015459,15.5194181 C43.1145319,15.6007594 43.3277649,15.4968233 43.507806,15.2774027 C43.6787948,15.0695306 43.6295098,14.9123712 43.5560852,14.6743726 L43.5218874,14.562905 C43.4756199,14.4042393 43.4062186,14.280721 43.3448638,14.172266 C43.2809944,14.0602962 43.2271833,13.9633896 43.2100844,13.8524241 C43.1965059,13.7630491 43.1748808,13.6992815 43.1532558,13.6319992 C43.1170464,13.5155105 43.0737963,13.3819501 43.0617265,13.0671292 C43.0461364,12.6358196 42.9872961,12.5168203 42.9244326,12.3922979 C42.9128657,12.3686989 42.9007959,12.3450999 42.8902348,12.3189903 C42.8530196,12.237649 42.8324004,12.0644223 42.9018017,11.9509461 C42.9410286,11.8881828 42.9998688,11.8550438 43.0843574,11.8505248 L43.1079941,11.8500227 C43.3066428,11.8500227 43.562623,11.9750473 43.7230507,12.0649244 C44.1158219,12.7071188 44.4784187,13.3714059 44.8083264,14.0542709 C44.7062361,14.0040603 44.5880527,13.9543517 44.5045699,13.9543517 C44.443718,13.9543517 44.4095203,13.9804612 44.3914156,14.003056 C44.317991,14.0954437 43.9111383,14.5935335 43.9111383,14.5935335 C43.9051034,14.600563 43.9005773,14.6090988 43.8975598,14.6186388 C43.8191061,14.8792322 43.7255652,15.1714582 43.7059518,15.2056015 C43.6792977,15.2367321 43.4555036,15.4255242 43.2925613,15.5625993 C42.9701972,15.8322306 42.873136,15.9155803 42.8525167,15.947213 C42.8052434,16.0190143 42.7298071,16.220359 42.7111995,16.4442986 C42.6986268,16.5904116 42.8057463,17.011177 42.9480693,17.5464227 C43.0018804,17.7583117 43.0511654,17.9405764 43.0637381,18.0133819 C43.086369,18.1509591 43.0707789,18.3136417 43.0566974,18.4577463 C43.0506625,18.536577 43.0431189,18.6078762 43.0431189,18.6666227 C43.0431189,18.7303902 43.0048979,18.8097231 42.9556129,18.9106465 C42.8987843,19.0301479 42.8268684,19.1802778 42.7866358,19.3725846 C42.7609874,19.487567 42.7298071,19.5352672 42.6961123,19.5879884 C42.6272139,19.6914223 42.5623387,19.7903374 42.5623387,20.2552881 C42.5623387,20.3416505 42.5603271,20.4395613 42.5593213,20.5455058 C42.5487602,21.323269 42.5306555,22.4976964 42.9867932,23.0374611 L43.0858661,23.1534477 C43.4670705,23.601829 43.4670705,23.601829 43.4504745,24.002008 C43.4298552,24.5267094 43.4348843,24.7847923 43.5762015,24.8786862 C43.6340359,24.9168463 43.7718328,25.1377732 43.8628591,25.2848905 C43.9227052,25.3807929 43.978528,25.4721763 44.0197665,25.5259017 C44.0630166,25.5826397 44.0846416,25.6464073 44.1082783,25.7192127 C44.1424761,25.819132 44.1801942,25.9300975 44.2792671,26.0616495 C44.3144706,26.1088475 44.3330782,26.1500202 44.3526917,26.1891846 C44.4281279,26.3488545 44.4980321,26.445259 45.0401671,26.5883594 C45.3328596,26.6646796 45.4264005,26.7600798 45.4872524,26.8238474 C45.527485,26.8660243 45.5687235,26.9082013 45.6416452,26.9082013 C45.7095378,26.9082013 45.784974,26.8750623 45.9675296,26.7640967 C46.4588709,26.4668495 46.7485459,26.1108559 47,25.7895077 C46.1505882,36.7745971 37.5392924,45.6227205 26.6422793,46.8523797 Z" id="Shape"></path>
        </g>
    </g>
</svg>