<?xml version="1.0" encoding="UTF-8"?>
<svg width="48px" height="48px" viewBox="0 0 48 48" version="1.1" xmlns="http://www.w3.org/2000/svg" xmlns:xlink="http://www.w3.org/1999/xlink">
    <title>GD ICON</title>
    <g id="Page-1" stroke="none" stroke-width="1" fill="none" fill-rule="evenodd">
        <g id="02_COVID-10-Resources_UniteKindness" transform="translate(-696.000000, -1352.000000)">
            <g id="Intro" transform="translate(70.000000, 1352.000000)">
                <g id="GD-ICON" transform="translate(626.000000, 0.000000)">
                    <circle id="Oval" stroke="#9B9B9B" stroke-width="1.2" cx="24" cy="24" r="23.4"></circle>
                    <g id="GD-Logo-Mark" transform="translate(15.000000, 9.000000)" fill="#9B9B9B" fill-rule="nonzero">
                        <path d="M18.3453681,15.0875361 C18.7572497,15.8658436 18.8808142,16.6657707 18.9631905,17.4656979 C19.1691313,19.3682274 18.4895266,20.9897014 17.4598226,22.4814574 C16.0388311,24.5569441 14.226552,26.2648967 12.3524907,27.864751 C11.5287275,28.5781996 10.6637762,29.2484088 9.75763664,29.8753788 C9.592884,29.983477 9.46931951,30.0699556 9.26337871,29.9186181 C6.50377197,27.8863707 3.88832379,25.6811661 1.80832169,22.8706112 C0.963964399,21.7247696 0.222577513,20.4924493 0.0578248713,19.0223129 C-0.333462652,15.6064077 1.25228152,12.4715581 5.08278044,12.039165 C6.52436605,11.8878274 7.84238718,12.1688829 9.05743791,12.9904297 C9.30456687,13.163387 9.34575503,13.2498656 9.09862607,13.4876817 C8.06892206,14.4605661 6.85387133,14.6767627 5.5358502,14.7632413 C2.73505529,14.9361985 2.24079737,17.7467534 2.9409961,19.4330863 C3.47644218,20.7086459 4.34139355,21.7247696 5.24753308,22.7192736 C6.48317789,24.0813117 7.84238718,25.2920123 9.26337871,26.4378539 C9.42813135,26.5675718 9.53110175,26.6324308 9.73704256,26.4810932 C11.7346683,24.8596193 13.6499178,23.1516667 15.1944738,21.011321 C15.4827909,20.6005476 15.7299199,20.1681545 15.9564548,19.7357615 C16.3477423,18.9790736 16.4507127,18.2007661 16.2859601,17.3575996 C16.2447719,17.1414031 16.265366,17.0116852 16.4713068,16.8819673 C17.2126937,16.4928135 17.8511101,15.9307025 18.3453681,15.0875361 Z" id="Shape"></path>
                        <path d="M0.625752001,14.9976127 C-0.116014859,13.0099901 -0.280851939,11.1087859 0.584542731,9.20758164 C1.22328642,7.80328306 2.15049499,6.59342582 3.18072674,5.46998695 C5.01453926,3.46075974 7.03379349,1.71078766 9.2178848,0.155256922 C9.36211724,0.0472339541 9.48574505,-0.0823936075 9.6917914,0.0688385477 C12.535231,2.16448413 15.2138336,4.43296646 17.336111,7.34958659 C18.0778778,8.38660708 18.7372262,9.51004595 18.9226679,10.8063216 C19.3759699,14.2630565 17.8512269,17.5037456 13.9569508,17.9358375 C12.5970449,18.0870696 11.2783483,17.9790466 10.0008609,17.5253502 C9.98025629,17.3309088 10.1038841,17.2876996 10.1863026,17.2228859 C10.6396046,16.8340032 11.1135112,16.4451205 11.5874178,16.0562378 C12.1025337,15.6241459 12.6794635,15.3864954 13.3800211,15.3864954 C15.0696011,15.3432862 16.2234607,14.0686152 16.3470885,12.2970385 C16.429507,11.3464364 16.1410422,10.5254619 15.6671356,9.72609189 C14.6369038,8.01932899 13.2769979,6.636635 11.8346734,5.34035939 C11.1753251,4.73543077 10.4747675,4.17371133 9.79481458,3.5903873 C9.60937286,3.43915515 9.48574505,3.37434137 9.25909407,3.56878271 C7.48709546,5.01629048 5.77691075,6.52861203 4.3345863,8.3433979 C4.00491214,8.75388518 3.69584262,9.20758164 3.40737773,9.66127811 C2.83044795,10.5902756 2.50077379,11.5624823 2.74802941,12.6859212 C2.78923868,12.8803626 2.76863404,13.0099901 2.58319233,13.0964085 C1.77961156,13.5285004 1.14086788,14.0902198 0.625752001,14.9976127 Z" id="Shape"></path>
                        <path d="M5.78843893,17.9678335 C4.93526156,18.0180937 4.10192552,17.8421831 3.30827215,17.490362 C2.91144547,17.3144514 2.95112814,17.0882807 3.12970014,16.7364595 C3.6257335,15.7815165 4.39954553,15.3794352 5.23288157,15.4045653 C6.60193363,15.4296953 7.71304834,14.7763132 8.80432172,13.77111 C10.3321045,12.3386954 12.0583005,11.5345328 14.0225926,12.2884353 C14.1813233,12.3386954 14.340054,12.4140857 14.4987846,12.4894759 C15.113866,12.7910369 15.1337073,12.841297 14.7170393,13.4946791 C14.161482,14.374232 13.3876699,14.6506628 12.5344926,14.6757929 C11.9789352,14.6757929 11.5027432,14.9019637 11.0463925,15.3040449 C10.7487725,15.5804758 10.4313111,15.8317766 10.1932151,16.1835978 C9.22098974,17.4652319 7.97098569,17.8421831 6.6416163,17.9929636 C6.36383762,18.0180937 6.08605894,17.9678335 5.78843893,17.9678335 Z" id="Shape"></path>
                    </g>
                </g>
            </g>
        </g>
    </g>
</svg>