<?xml version="1.0" encoding="UTF-8"?>
<svg width="48px" height="48px" viewBox="0 0 48 48" version="1.1" xmlns="http://www.w3.org/2000/svg" xmlns:xlink="http://www.w3.org/1999/xlink">
    <!-- Generator: Sketch 47.1 (45422) - http://www.bohemiancoding.com/sketch -->
    <title>Handshake ICON</title>
    <desc>Created with Sketch.</desc>
    <defs>
        <polygon id="path-1" points="61.8739739 47.4262154 0.000307719078 47.4262154 0.000307719078 0.000147692308 61.8739739 0.000147692308 61.8739739 47.4262154"></polygon>
    </defs>
    <g id="Symbols" stroke="none" stroke-width="1" fill="none" fill-rule="evenodd">
        <g id="Join-Us-ICON" transform="translate(-7.000000, 0.000000)">
            <g id="Handshake-ICON">
                <mask id="mask-2" fill="white">
                    <use xlink:href="#path-1"></use>
                </mask>
                <g id="Clip-2"></g>
                <path d="M33.5237583,37.1899915 C32.9087842,37.1264998 32.3686977,36.8403802 32.1403718,36.7028148 C32.3430568,36.2844207 32.4956811,35.8440488 32.5892907,35.4228057 C33.2978744,35.8110819 34.3056017,36.2506399 35.3605408,36.4830358 C34.7952204,37.2034225 34.1012886,37.2510413 33.5237583,37.1899915 M29.8318785,37.511927 C29.2132414,37.7170541 28.5946042,37.2559252 28.2706338,36.9348037 C28.9124698,36.2091261 29.6458804,34.7878887 29.8477514,33.5510215 C30.3186482,33.427701 30.7317513,33.4452019 31.0264179,33.6202111 C31.2726518,33.7663234 31.4297531,34.0178483 31.4696389,34.3259458 C31.5990643,35.3291962 30.7427403,37.2123764 29.8318785,37.511927 M25.7895733,36.6311831 C25.2482658,36.4936178 24.6174187,36.231918 24.3060652,35.4594356 C24.3630449,35.4191428 24.4196177,35.3857689 24.4765974,35.3409991 C25.0227888,34.9046972 26.6471183,33.4586329 26.8091035,31.6645852 C27.4065768,31.5937675 27.8335178,31.7732537 28.0972526,31.9547749 C28.4574459,32.2018227 28.645479,32.5355612 28.6719339,32.7565611 C28.7948473,33.7740564 27.8746246,35.6442127 27.2531385,36.233546 C26.7818347,36.6820579 26.1701165,36.7276417 25.7895733,36.6311831 M22.3378223,34.6222405 C21.7208132,34.4134504 21.0024615,33.9038888 20.8205334,33.3353125 C20.682154,32.9038945 20.7301798,32.6991744 20.8372203,32.5371892 C21.2173565,32.0203016 22.9251206,30.1680532 24.0850652,30.0996775 C24.1119271,30.0980495 24.138789,30.0972355 24.1664648,30.0972355 C24.6841664,30.0972355 25.4912437,30.3748082 25.5893302,31.1387437 C25.7403265,32.3088632 24.6731775,33.6202111 23.7134759,34.3874026 C23.3264207,34.6967211 23.056174,34.733351 22.8860488,34.733351 C22.7313895,34.732944 22.5620783,34.6987561 22.3378223,34.6222405 M18.4530254,31.7679627 C17.9186369,31.5196939 17.5735025,31.1232777 17.5047198,30.6804638 C17.4424491,30.2767217 17.6219353,29.8579206 18.0106184,29.5026113 C18.8172887,28.7639097 19.832342,28.6116924 20.4180123,28.8424603 C20.685817,28.9474659 21.0106015,29.2087586 21.1351429,29.556335 C21.2393344,29.8489667 21.1896807,30.1875891 20.9987986,30.5603994 C20.5506936,30.9877474 20.2023033,31.3878265 20.0065372,31.6263274 C19.4912776,31.9722758 18.9963679,32.0190806 18.4530254,31.7679627 M47.4223367,26.3577369 C46.6693902,26.3019781 46.0234842,26.3935527 45.4854327,26.551875 C45.5322375,26.3776798 45.5692743,26.1945306 45.5920662,26.0064975 C45.633173,25.6719451 45.3950791,25.3675105 45.0601197,25.3268107 C44.7247533,25.2877389 44.4207257,25.5242048 44.3800259,25.8591642 C44.3039172,26.4786153 44.0104716,27.0187018 43.7829596,27.3581382 C41.8953024,26.2307535 38.4398885,23.312577 38.109406,23.0317483 C37.7451427,22.6479491 34.2209461,19.0386899 30.3109153,19.0386899 C29.3186539,19.0386899 28.3027866,19.3537064 27.5046633,19.7212257 C27.5062913,19.6850029 27.5107683,19.6500011 27.5107683,19.6133712 C27.5091403,19.2771908 27.2364516,19.0053161 26.9002711,19.0053161 L26.8978291,19.0053161 C26.5608347,19.0065371 26.288553,19.2808538 26.289774,19.6182552 C26.2918089,20.1713656 26.0048753,20.7167431 26.0032473,20.7204061 C26.0028403,20.7212201 26.0028403,20.7220341 26.0024333,20.7224411 C26.0020263,20.7228481 26.0012123,20.7236621 26.0012123,20.7240691 C24.8616176,22.8656931 23.1253637,23.4114776 21.8689605,23.4924702 C21.0659532,23.544159 20.3874874,23.4171756 19.9051946,23.1229159 C19.6276219,22.9536047 19.614191,22.8412732 19.608086,22.7879565 C19.5511063,22.3231646 20.2010823,21.4070119 20.8889091,20.4375424 C21.4664394,19.6235462 22.1200783,18.7004745 22.7061556,17.6036146 C23.1444926,16.7074047 23.5950395,16.2084251 24.1684998,15.9857971 C27.1619709,14.8254455 29.732978,13.86493 30.8652467,13.86493 C31.3841693,13.86493 32.2787511,14.0395322 33.3137473,14.2414032 C34.449679,14.4632172 35.8644045,14.7391619 37.3507615,14.8950422 C39.9225826,15.1648819 42.7609874,16.656937 43.3047369,19.3817893 C43.3702636,19.7126788 43.6921991,19.9271668 44.0234955,19.8612331 C44.353571,19.7952994 44.568466,19.4737709 44.5025323,19.1428814 C44.3075802,18.168528 43.8802322,17.3280769 43.3035159,16.6129812 C44.0100646,16.5161156 44.9575562,16.3162796 45.8818489,15.8991065 C46.1895395,15.7603202 46.3266978,15.3989058 46.1875045,15.0916223 C46.0491251,14.7843387 45.6881178,14.6475873 45.3808342,14.7859667 C43.8611033,15.4709445 42.197702,15.4831544 42.1810151,15.4831544 C42.1688051,15.4831544 42.1570022,15.4860034 42.1447923,15.4868174 C40.8033265,14.4534492 39.0959694,13.849871 37.4789659,13.6805598 C36.0455186,13.5299705 34.7191118,13.2711197 33.5485852,13.0427938 C32.4061415,12.8197588 31.5034197,12.6439356 30.8660607,12.6439356 C30.358534,12.6439356 29.6926851,12.773361 28.8839799,13.003315 C27.6861845,13.0370958 26.8461404,12.9406373 26.1045898,12.8543537 C24.9580761,12.7208583 23.9678498,12.6056778 22.3138094,13.0545967 C21.2116586,13.3533333 20.3878944,13.6724199 19.6601818,13.9532486 C18.3028431,14.4786831 17.4819279,14.7957346 16.0374916,14.5140919 C15.7061952,14.4481583 15.3862946,14.6659022 15.3215819,14.9967917 C15.2572762,15.3276812 15.4729852,15.6483957 15.8042817,15.7127014 C16.2548286,15.800613 16.6618267,15.8392778 17.041149,15.8392778 C18.1697547,15.8392778 19.0529406,15.4978064 20.1013677,15.0924363 C20.8009975,14.8217825 21.5930158,14.5157199 22.634117,14.2332633 C23.9947116,13.864116 24.7867299,13.9316777 25.8144002,14.0501141 C25.1623892,14.293906 24.4680504,14.5604897 23.7281279,14.8474234 C22.5987081,15.2861674 22.0028629,16.2641838 21.6202847,17.0476552 C21.0814192,18.0574175 20.4501651,18.9467083 19.8942057,19.7314007 C18.9947399,20.9996068 18.2841212,22.0016361 18.3968596,22.9356968 C18.4575024,23.4354905 18.752169,23.8494075 19.2702776,24.1652381 C19.9784543,24.5974701 20.8799551,24.7798052 21.9491391,24.7110225 C23.4957319,24.611308 25.624739,23.9523781 27.0296965,21.390732 C27.3377941,21.1591501 28.7887423,20.2596842 30.3117293,20.2596842 C33.8269719,20.2596842 37.2079052,23.8542915 37.241686,23.8901074 C37.257559,23.9072013 37.2746529,23.9238882 37.2925608,23.9393541 C37.473268,24.0936064 41.7459341,27.7285065 43.6478363,28.6800681 C43.8399394,28.7887366 43.9612248,28.9438029 44.0177975,29.1525929 C44.1057091,29.4720864 44.0308215,29.8961784 43.8236595,30.2588138 C43.489514,30.843263 42.5196375,31.0809499 42.2530538,31.0467621 C41.4537095,30.9230347 39.0218958,30.5465614 35.8021337,27.8164181 C35.5449109,27.5982671 35.1594837,27.630013 34.9413327,27.8872358 C34.7235888,28.1440516 34.7553346,28.5298858 35.0125574,28.7476298 C38.0703342,31.3406147 40.5151718,31.9763458 41.6783724,32.1887988 C41.6246487,32.4574175 41.5062122,32.7150473 41.3157371,32.9360473 C40.9860686,33.3174045 40.5001129,33.5481725 39.9470025,33.5839883 C39.0487576,33.643003 35.8387636,32.8644156 33.9270935,31.1660125 C33.6755686,30.9417566 33.2889204,30.9649555 33.0658855,31.2168873 C32.8416295,31.4684121 32.8644214,31.8550603 33.1167602,32.0780953 C34.6515501,33.44276 36.8924817,34.284839 38.4940192,34.6287524 C38.2481924,34.9889458 37.9124189,35.2258187 37.473268,35.3409991 C35.8595205,35.7703821 33.3503771,34.5229329 32.6584804,34.0455242 C32.5432999,33.4199681 32.1826996,32.8868005 31.650753,32.57097 C31.1395634,32.2665354 30.5050534,32.1826938 29.8180406,32.3088632 C29.6650093,31.7960456 29.292199,31.2938099 28.7891493,30.9482685 C28.1827222,30.5319095 27.4436136,30.3646333 26.6686892,30.4549868 C26.274308,29.4163277 25.1811111,28.8762412 24.1672788,28.8762412 C24.1147761,28.8762412 24.0630873,28.8778692 24.0138405,28.8807182 C23.4599161,28.913278 22.8990727,29.1513719 22.3736382,29.4757494 C22.3508463,29.353243 22.3203214,29.2429465 22.2853196,29.1452669 C22.0154798,28.3906924 21.3748648,27.9067717 20.8661172,27.7069356 C19.8058871,27.2897626 18.3838357,27.6116981 17.3382576,28.480232 C16.7932871,28.0268361 15.8030607,27.3092985 14.666315,26.980851 C14.3415305,26.8876484 14.0041291,27.0744606 13.9105195,27.3976171 C13.8173169,27.7219945 14.0037221,28.06021 14.3272856,28.1538195 C15.2523923,28.4208103 16.0928434,29.0345634 16.5543792,29.4159207 C16.3150643,29.8737935 16.2226758,30.3735872 16.2987844,30.8664619 C16.4302448,31.720751 17.028939,32.4517196 17.9402078,32.8745906 C18.3341819,33.0569257 18.7301911,33.1480933 19.1229443,33.1480933 C19.2584746,33.1480933 19.392784,33.1342554 19.5262794,33.1114635 C19.5502923,33.3340915 19.602795,33.5367765 19.6581468,33.7069017 C20.0008392,34.7789347 21.1046181,35.4928094 21.9458832,35.7789291 C22.186012,35.8595147 22.5095755,35.9531243 22.8868628,35.9539383 C22.9865773,35.9539383 23.0846639,35.9396933 23.1831574,35.9262624 C23.5706196,36.8855569 24.340253,37.522916 25.4896157,37.8151406 C25.6870098,37.8652014 25.9100447,37.8940983 26.1477316,37.8940983 C26.506704,37.8940983 26.8978291,37.8236876 27.2791864,37.6572254 C27.7342102,38.160682 28.5653004,38.7825751 29.5258159,38.7825751 C29.7492579,38.7825751 29.9796188,38.7492013 30.2140497,38.6722786 C30.6959355,38.5131424 31.1240975,38.170857 31.4855118,37.734148 C31.8025633,37.9266581 32.5314969,38.3161553 33.3979959,38.4044739 C33.5534692,38.4203468 33.7040585,38.4297078 33.8513918,38.4297078 C35.1134929,38.4297078 36.0658685,37.8261296 36.6995646,36.6458351 C36.7129955,36.6466491 36.7268334,36.6474631 36.7406714,36.6474631 C37.1004577,36.6474631 37.4521041,36.6092052 37.7846215,36.5212936 C38.7048442,36.2783158 39.3881941,35.6869475 39.7882732,34.8037616 C39.8135071,34.8045756 39.843218,34.8070176 39.8676378,34.8070176 C39.9238036,34.8070176 39.9763063,34.8053896 40.0255531,34.8021336 C40.908739,34.7447469 41.6950593,34.3650177 42.2400298,33.7329496 C42.62505,33.2868797 42.8574459,32.7537122 42.9184957,32.1924618 C43.6152764,32.0312905 44.4561345,31.6120825 44.8834825,30.8640199 C45.2510018,30.2205559 45.3678103,29.4598765 45.1956501,28.8294364 C45.1280884,28.5836095 45.0165709,28.3634236 44.8692376,28.1672505 C45.3332154,27.8571179 46.1496536,27.4855286 47.3323901,27.5754752 C47.6628726,27.5946041 47.9616092,27.3479633 47.9860291,27.0117828 C48.011263,26.6756024 47.7589242,26.3829708 47.4223367,26.3577369" id="Fill-1" fill="#9B9B9B" mask="url(#mask-2)"></path>
                <circle id="Oval" stroke="#9B9B9B" stroke-width="1.2" cx="31" cy="24" r="23.4"></circle>
            </g>
        </g>
    </g>
</svg>