<?xml version="1.0" encoding="UTF-8"?>
<svg width="142px" height="142px" viewBox="0 0 142 142" version="1.1" xmlns="http://www.w3.org/2000/svg" xmlns:xlink="http://www.w3.org/1999/xlink">
    <!-- Generator: Sketch 47.1 (45422) - http://www.bohemiancoding.com/sketch -->
    <title>line globe</title>
    <desc>Created with Sketch.</desc>
    <defs>
        <ellipse id="path-1" cx="70.2023105" cy="70.5157136" rx="70.2023105" ry="70.5157136"></ellipse>
    </defs>
    <g id="Design" stroke="none" stroke-width="1" fill="none" fill-rule="evenodd">
        <g id="00_IntroPanels" transform="translate(-359.000000, -1324.000000)">
            <g id="slide-02" transform="translate(0.000000, 900.000000)">
                <g id="Group-3" transform="translate(222.350000, 272.700000)">
                    <g id="line-globe" transform="translate(208.350000, 221.850000) rotate(-55.000000) translate(-208.350000, -221.850000) translate(137.700000, 151.200000)">
                        <mask id="mask-2" fill="white">
                            <use xlink:href="#path-1"></use>
                        </mask>
                        <g id="Oval-5"></g>
                        <path d="M-0.626806343,0.28311444 L-0.626806343,-0.626806343 L1.18396754,-0.626806343 L1.18396754,0.28311444 L1.18396754,142.001926 L1.18396754,142.911846 L-0.626806343,142.911846 L-0.626806343,142.001926 L-0.626806343,0.28311444 Z M6.61628918,0.28311444 L6.61628918,-0.626806343 L8.42706306,-0.626806343 L8.42706306,0.28311444 L8.42706306,142.001926 L8.42706306,142.911846 L6.61628918,142.911846 L6.61628918,142.001926 L6.61628918,0.28311444 Z M13.8593847,0.28311444 L13.8593847,-0.626806343 L15.6701586,-0.626806343 L15.6701586,0.28311444 L15.6701586,142.001926 L15.6701586,142.911846 L13.8593847,142.911846 L13.8593847,142.001926 L13.8593847,0.28311444 Z M21.1024802,0.28311444 L21.1024802,-0.626806343 L22.9132541,-0.626806343 L22.9132541,0.28311444 L22.9132541,142.001926 L22.9132541,142.911846 L21.1024802,142.911846 L21.1024802,142.001926 L21.1024802,0.28311444 Z M28.3455758,0.28311444 L28.3455758,-0.626806343 L30.1563496,-0.626806343 L30.1563496,0.28311444 L30.1563496,142.001926 L30.1563496,142.911846 L28.3455758,142.911846 L28.3455758,142.001926 L28.3455758,0.28311444 Z M35.5886713,0.28311444 L35.5886713,-0.626806343 L37.3994452,-0.626806343 L37.3994452,0.28311444 L37.3994452,142.001926 L37.3994452,142.911846 L35.5886713,142.911846 L35.5886713,142.001926 L35.5886713,0.28311444 Z M42.8317668,0.28311444 L42.8317668,-0.626806343 L44.6425407,-0.626806343 L44.6425407,0.28311444 L44.6425407,142.001926 L44.6425407,142.911846 L42.8317668,142.911846 L42.8317668,142.001926 L42.8317668,0.28311444 Z M50.0748623,0.28311444 L50.0748623,-0.626806343 L51.8856362,-0.626806343 L51.8856362,0.28311444 L51.8856362,142.001926 L51.8856362,142.911846 L50.0748623,142.911846 L50.0748623,142.001926 L50.0748623,0.28311444 Z M57.3179579,0.28311444 L57.3179579,-0.626806343 L59.1287317,-0.626806343 L59.1287317,0.28311444 L59.1287317,142.001926 L59.1287317,142.911846 L57.3179579,142.911846 L57.3179579,142.001926 L57.3179579,0.28311444 Z M64.5610534,0.28311444 L64.5610534,-0.626806343 L66.3718273,-0.626806343 L66.3718273,0.28311444 L66.3718273,142.001926 L66.3718273,142.911846 L64.5610534,142.911846 L64.5610534,142.001926 L64.5610534,0.28311444 Z M71.8041489,0.28311444 L71.8041489,-0.626806343 L73.6149228,-0.626806343 L73.6149228,0.28311444 L73.6149228,142.001926 L73.6149228,142.911846 L71.8041489,142.911846 L71.8041489,142.001926 L71.8041489,0.28311444 Z M79.0472444,0.28311444 L79.0472444,-0.626806343 L80.8580183,-0.626806343 L80.8580183,0.28311444 L80.8580183,142.001926 L80.8580183,142.911846 L79.0472444,142.911846 L79.0472444,142.001926 L79.0472444,0.28311444 Z M86.2903399,0.28311444 L86.2903399,-0.626806343 L88.1011138,-0.626806343 L88.1011138,0.28311444 L88.1011138,142.001926 L88.1011138,142.911846 L86.2903399,142.911846 L86.2903399,142.001926 L86.2903399,0.28311444 Z M93.5334355,0.28311444 L93.5334355,-0.626806343 L95.3442094,-0.626806343 L95.3442094,0.28311444 L95.3442094,142.001926 L95.3442094,142.911846 L93.5334355,142.911846 L93.5334355,142.001926 L93.5334355,0.28311444 Z M100.776531,0.28311444 L100.776531,-0.626806343 L102.587305,-0.626806343 L102.587305,0.28311444 L102.587305,142.001926 L102.587305,142.911846 L100.776531,142.911846 L100.776531,142.001926 L100.776531,0.28311444 Z M108.019627,0.28311444 L108.019627,-0.626806343 L109.8304,-0.626806343 L109.8304,0.28311444 L109.8304,142.001926 L109.8304,142.911846 L108.019627,142.911846 L108.019627,142.001926 L108.019627,0.28311444 Z M115.262722,0.28311444 L115.262722,-0.626806343 L117.073496,-0.626806343 L117.073496,0.28311444 L117.073496,142.001926 L117.073496,142.911846 L115.262722,142.911846 L115.262722,142.001926 L115.262722,0.28311444 Z M122.505818,0.28311444 L122.505818,-0.626806343 L124.316591,-0.626806343 L124.316591,0.28311444 L124.316591,142.001926 L124.316591,142.911846 L122.505818,142.911846 L122.505818,142.001926 L122.505818,0.28311444 Z M129.748913,0.28311444 L129.748913,-0.626806343 L131.559687,-0.626806343 L131.559687,0.28311444 L131.559687,142.001926 L131.559687,142.911846 L129.748913,142.911846 L129.748913,142.001926 L129.748913,0.28311444 Z M136.992009,0.28311444 L136.992009,-0.626806343 L138.802782,-0.626806343 L138.802782,0.28311444 L138.802782,142.001926 L138.802782,142.911846 L136.992009,142.911846 L136.992009,142.001926 L136.992009,0.28311444 Z M144.235104,0.28311444 L144.235104,-0.626806343 L146.045878,-0.626806343 L146.045878,0.28311444 L146.045878,142.001926 L146.045878,142.911846 L144.235104,142.911846 L144.235104,142.001926 L144.235104,0.28311444 Z" id="Combined-Shape" fill="#DD462F" mask="url(#mask-2)"></path>
                    </g>
                </g>
            </g>
        </g>
    </g>
</svg>