<?xml version="1.0" encoding="UTF-8"?>
<svg width="47px" height="58px" viewBox="0 0 47 58" version="1.1" xmlns="http://www.w3.org/2000/svg" xmlns:xlink="http://www.w3.org/1999/xlink">
    <!-- Generator: Sketch 48.2 (47327) - http://www.bohemiancoding.com/sketch -->
    <title>Link ICON Small</title>
    <desc>Created with Sketch.</desc>
    <defs>
        <path d="M0.808602151,0.32344086 L33.9408581,0.32344086 L46.5754839,13.2746178 L46.5754839,56.4404301 C46.5754839,56.8870087 46.2134604,57.2490323 45.7668817,57.2490323 L0.808602151,57.2490323 C0.362023514,57.2490323 1.65712412e-16,56.8870087 1.11022302e-16,56.4404301 L-1.11022302e-16,1.13204301 C-1.65712412e-16,0.685464374 0.362023514,0.32344086 0.808602151,0.32344086 Z" id="path-1"></path>
        <polygon id="path-2" points="32.8802964 0.327241053 45.9077412 13.6451921 32.8802964 13.6439398"></polygon>
    </defs>
    <g id="Link-ICON-Small" stroke="none" stroke-width="1" fill="none" fill-rule="evenodd">
        <g transform="translate(0.000000, 0.461000)">
            <g id="Page">
                <g id="Rectangle-Copy">
                    <use fill="#FFFFFF" fill-rule="evenodd" xlink:href="#path-1"></use>
                    <path stroke="#171C22" stroke-width="1" d="M46.0754839,13.4781102 L33.7301184,0.82344086 L0.808602151,0.82344086 C0.638165889,0.82344086 0.5,0.961606749 0.5,1.13204301 L0.5,56.4404301 C0.5,56.6108664 0.638165889,56.7490323 0.808602151,56.7490323 L45.7668817,56.7490323 C45.937318,56.7490323 46.0754839,56.6108664 46.0754839,56.4404301 L46.0754839,13.4781102 Z"></path>
                </g>
                <g id="Group-2" transform="translate(0.667097, 0.000000)">
                    <rect id="Rectangle-2-Copy" fill="#F1F1F1" x="0.379150706" y="1.30548852" width="44.5194263" height="13.3179511"></rect>
                    <rect id="Rectangle-2-Copy-2" fill="#F1F1F1" x="3.368511" y="17.7892473" width="25.4662298" height="1.94064516"></rect>
                    <rect id="Rectangle-2-Copy-3" fill="#F1F1F1" x="10.6920262" y="22.8105364" width="29.1114147" height="1.94064516"></rect>
                    <rect id="Rectangle-2-Copy-6" fill="#F1F1F1" x="3.368511" y="22.8105364" width="5.05376344" height="1.94064516"></rect>
                    <rect id="Rectangle-2-Copy-7" fill="#F1F1F1" x="3.368511" y="28.4707514" width="5.05376344" height="1.94064516"></rect>
                    <rect id="Rectangle-2-Copy-4" fill="#F1F1F1" x="10.6920262" y="28.4707514" width="29.1114147" height="1.94064516"></rect>
                    <rect id="Rectangle-2-Copy-5" fill="#F1F1F1" x="10.6920262" y="33.8602151" width="29.1114147" height="1.94064516"></rect>
                    <g id="Rectangle-13" transform="translate(39.394019, 6.986217) scale(-1, -1) translate(-39.394019, -6.986217) ">
                        <use fill="#171C22" fill-rule="evenodd" xlink:href="#path-2"></use>
                        <path stroke="#171C22" stroke-width="0.5" d="M33.1302964,0.940333109 L33.1302964,13.3939638 L45.31342,13.395135 L33.1302964,0.940333109 Z"></path>
                    </g>
                </g>
                <path d="M41.9714599,5.02854011 L34.8709677,12.1290323" id="Line" stroke="#171C22" stroke-width="5.05376344" stroke-linecap="square"></path>
            </g>
            <path d="M16.7359366,51.9706598 L11.5770549,51.9706598 L11.5770549,40.2944447 L13.5823882,40.2944447 L13.5823882,50.2240791 L16.7359366,50.2240791 L16.7359366,51.9706598 Z M20.0239683,51.9706598 L18.018635,51.9706598 L18.018635,40.2944447 L20.0239683,40.2944447 L20.0239683,51.9706598 Z M23.8295054,51.9706598 L22.0182366,51.9706598 L22.0182366,40.2944447 L23.8780215,40.2944447 L26.32,46.9734985 L26.3523441,46.9734985 L26.3523441,40.2944447 L28.1636129,40.2944447 L28.1636129,51.9706598 L26.4170323,51.9706598 L23.8618495,44.6770684 L23.8295054,44.6770684 L23.8295054,51.9706598 Z M31.7912575,51.9706598 L29.7859242,51.9706598 L29.7859242,40.2944447 L31.7912575,40.2944447 L31.7912575,44.6123802 L31.8236016,44.6123802 L33.9259672,40.2944447 L35.9313005,40.2944447 L33.7642468,44.6447243 L36.2062253,51.9706598 L34.1685478,51.9706598 L32.5351715,46.5368533 L32.5028274,46.5368533 L31.7912575,47.8306168 L31.7912575,51.9706598 Z" id="LINK" fill="#171C22"></path>
        </g>
    </g>
</svg>