<?xml version="1.0" encoding="UTF-8"?>
<svg width="46px" height="57px" viewBox="0 0 46 57" version="1.1" xmlns="http://www.w3.org/2000/svg" xmlns:xlink="http://www.w3.org/1999/xlink">
    <!-- Generator: Sketch 48.2 (47327) - http://www.bohemiancoding.com/sketch -->
    <title>Pdf ICON Small</title>
    <desc>Created with Sketch.</desc>
    <defs>
        <path d="M0.793043478,0.317217391 L33.287787,0.317217391 L45.6793043,13.019195 L45.6793043,55.3544348 C45.6793043,55.7924206 45.3242467,56.1474783 44.8862609,56.1474783 L0.793043478,56.1474783 C0.355057659,56.1474783 4.38782253e-15,55.7924206 4.4408921e-16,55.3544348 L-1.11022302e-16,1.11026087 C-1.64660096e-16,0.672275051 0.355057659,0.317217391 0.793043478,0.317217391 Z" id="path-1"></path>
        <polygon id="path-2" points="27.2634144 0.357973166 40.0401924 13.4196677 27.2634144 13.4184394"></polygon>
    </defs>
    <g id="PDF-ICON-Small" stroke="none" stroke-width="1" fill="none" fill-rule="evenodd">
        <g id="Pdf-ICON-Small" transform="translate(0.000000, 0.461000)">
            <g id="Page">
                <g id="Rectangle-Copy">
                    <use fill="#FFFFFF" fill-rule="evenodd" xlink:href="#path-1"></use>
                    <path stroke="#171C22" stroke-width="1" d="M45.1793043,13.2226874 L33.0770474,0.817217391 L0.793043478,0.817217391 C0.631200034,0.817217391 0.5,0.948417425 0.5,1.11026087 L0.5,55.3544348 C0.5,55.5162782 0.631200034,55.6474783 0.793043478,55.6474783 L44.8862609,55.6474783 C45.0481043,55.6474783 45.1793043,55.5162782 45.1793043,55.3544348 L45.1793043,13.2226874 Z"></path>
                </g>
                <g id="Group-2" transform="translate(5.610783, 0.000000)">
                    <rect id="Rectangle-2-Copy" fill="#F1F1F1" x="0.376695652" y="9.7162971" width="19.826087" height="1.90330435"></rect>
                    <rect id="Rectangle-2-Copy-2" fill="#F1F1F1" x="0.376695652" y="15.3333679" width="19.826087" height="1.90330435"></rect>
                    <rect id="Rectangle-2-Copy-3" fill="#F1F1F1" x="0.376695652" y="20.8846722" width="33.7043478" height="1.90330435"></rect>
                    <rect id="Rectangle-2-Copy-4" fill="#F1F1F1" x="0.376695652" y="26.4359766" width="33.7043478" height="1.90330435"></rect>
                    <rect id="Rectangle-2-Copy-5" fill="#F1F1F1" x="0.376695652" y="31.7217391" width="33.7043478" height="1.90330435"></rect>
                    <g id="Rectangle-13">
                        <use fill="#171C22" fill-rule="evenodd" xlink:href="#path-2"></use>
                        <path stroke="#171C22" stroke-width="0.508928571" d="M27.5178787,0.982013294 L27.5178787,13.1639996 L39.4352583,13.1651452 L27.5178787,0.982013294 Z"></path>
                    </g>
                </g>
                <polygon id="Path-2" fill="#F1F1F1" points="32.7626208 13.4220031 44.6852095 25.3176553 44.6852095 13.4220031"></polygon>
            </g>
            <path d="M14.6320696,40.3678275 L14.6320696,43.8889405 L15.3933913,43.8889405 C16.6781217,43.8889405 17.0746435,43.4924188 17.0746435,42.128384 C17.0746435,40.7643492 16.6781217,40.3678275 15.3933913,40.3678275 L14.6320696,40.3678275 Z M14.6320696,50.2015666 L12.6653217,50.2015666 L12.6653217,38.7500188 L15.4885565,38.7500188 C17.9152696,38.7500188 19.0413913,39.6858101 19.0413913,42.128384 C19.0413913,44.5709579 17.9152696,45.5067492 15.4885565,45.5067492 L14.6320696,45.5067492 L14.6320696,50.2015666 Z M22.3454609,40.3678275 L22.3454609,48.5837579 L23.0274783,48.5837579 C24.0742956,48.5837579 24.4390956,48.1872362 24.4390956,46.9818101 L24.4390956,41.9697753 C24.4390956,40.7643492 24.0742956,40.3678275 23.0274783,40.3678275 L22.3454609,40.3678275 Z M20.378713,50.2015666 L20.378713,38.7500188 L23.297113,38.7500188 C25.3273043,38.7500188 26.4058435,39.8602797 26.4058435,42.2076883 L26.4058435,46.743897 C26.4058435,49.0913057 25.3273043,50.2015666 23.297113,50.2015666 L20.378713,50.2015666 Z M30.0588522,50.2015666 L28.0921044,50.2015666 L28.0921044,38.7500188 L33.5799652,38.7500188 L33.5799652,40.4629927 L30.0588522,40.4629927 L30.0588522,43.4131144 L32.6917565,43.4131144 L32.6917565,45.1260883 L30.0588522,45.1260883 L30.0588522,50.2015666 Z" id="PDF" fill="#171C22"></path>
        </g>
    </g>
</svg>