<?xml version="1.0" encoding="UTF-8"?>
<svg width="48px" height="48px" viewBox="0 0 48 48" version="1.1" xmlns="http://www.w3.org/2000/svg" xmlns:xlink="http://www.w3.org/1999/xlink">
    <!-- Generator: Sketch 47.1 (45422) - http://www.bohemiancoding.com/sketch -->
    <title>Story ICON</title>
    <desc>Created with Sketch.</desc>
    <defs></defs>
    <g id="Symbols" stroke="none" stroke-width="1" fill="none" fill-rule="evenodd">
        <g id="Story-ICON">
            <circle id="Oval" stroke="#9B9B9B" stroke-width="1.2" cx="24" cy="24" r="23.4"></circle>
            <g id="Bullhorn" transform="translate(6.000000, 9.000000)">
                <path d="M26.7989155,8.68362445 L27.9449679,11.5934895 C27.9739866,11.4855789 27.9996993,11.3776683 28.0184328,11.2697577 C28.0878572,10.8232311 28.0478188,10.3655413 27.8748089,9.93389895 C27.7058397,9.50225656 27.4229998,9.14131422 27.0707356,8.8696772 C26.9825777,8.80269821 26.8944199,8.73944027 26.7989155,8.68362445 L26.7989155,8.68362445 Z M30.9790683,9.0929405 C30.6958611,9.20457216 30.3766561,9.06689312 30.2660914,8.78037188 C30.1566287,8.49385064 30.2921715,8.17011885 30.5750113,8.05848719 L34.5531357,6.45099141 C34.8363429,6.33935975 35.1559152,6.47703879 35.2657452,6.76356003 C35.3755752,7.05008127 35.2400325,7.37381306 34.9571926,7.48544471 L30.9790683,9.0929405 Z M29.2232572,6.61843888 C29.0289425,6.85286535 28.6799842,6.88263379 28.4485698,6.68541787 C28.2167881,6.48820196 28.1874021,6.13470172 28.3824514,5.90027526 L31.3316998,2.38759927 C31.5263818,2.1531728 31.8753401,2.12340436 32.1063872,2.32062028 C32.3381689,2.5178362 32.3675549,2.87133643 32.1728729,3.1057629 L29.2232572,6.61843888 Z M31.0525332,12.2074636 C30.7513271,12.1739741 30.5309324,11.9023371 30.5639916,11.5934895 C30.5970508,11.288363 30.8651977,11.0650997 31.170077,11.0985892 L35.5081794,11.5674421 C35.8090181,11.6009316 36.0297802,11.8725686 35.996721,12.1814162 C35.9632944,12.4865427 35.6955149,12.709806 35.3910029,12.6763165 L31.0525332,12.2074636 Z M2.13307532,16.9707862 C1.85023546,17.0857668 1.57106884,17.1973984 1.29190222,17.3127511 C1.14129917,17.3760091 1.05681454,17.5583408 1.12293295,17.710904 L1.13395268,17.7403004 L3.12117823,22.6930247 C3.18362339,22.849309 3.3636124,22.9315443 3.52156193,22.8682864 C3.8044018,22.7525616 4.08356842,22.6416741 4.36273504,22.5259493 C4.51333808,22.4626914 4.59414947,22.2803597 4.53170431,22.1277964 L2.53345903,17.1453037 C2.47101386,16.9886473 2.29102486,16.9034351 2.13307532,16.9707862 L2.13307532,16.9707862 Z M5.49776774,21.5696381 L26.1707906,18.6932626 L21.8363615,7.69754485 C21.7221236,7.41102361 21.8620742,7.08357077 22.1449141,6.96821806 C22.4277539,6.85286535 22.7506322,6.99426545 22.8648701,7.28450774 L27.8641565,19.9654913 C27.9596609,20.2073599 28.2421334,20.3301547 28.4812617,20.2337794 L29.4914041,19.8244633 C29.7297977,19.7277159 29.8513821,19.4411946 29.7558777,19.1993261 L22.7509995,1.43128812 C22.6554951,1.18941954 22.3726553,1.06662472 22.1338943,1.16337215 L21.123752,1.57268821 C20.8853584,1.66943564 20.7641413,1.95595688 20.8592783,2.19782546 L21.9425183,4.94768516 C22.0567562,5.2342064 21.9171729,5.56165924 21.6335984,5.67701195 C21.3511258,5.79236466 21.0282476,5.65096457 20.9140097,5.36444333 L20.4732203,4.24440575 L3.49952246,16.6094717 C3.51788869,16.6466823 3.53625491,16.687986 3.55462114,16.7285455 L5.49776774,21.5696381 Z M5.58225238,22.6751636 C5.5675594,22.7157231 5.55286642,22.7566547 5.53817344,22.7979584 C5.39491688,23.1362023 5.08269106,23.4599341 4.73373278,23.5719379 L3.92561888,23.8990186 C3.20566286,24.1892609 2.39020247,23.8320396 2.10001612,23.106806 L0.101770838,18.1239412 C-0.188415517,17.3983354 0.164216003,16.5685401 0.876825533,16.2708557 C0.886620853,16.2658943 1.16946072,16.151782 1.72534513,15.9285187 C2.01920473,15.8094449 2.32775731,15.7982817 2.61059717,15.8764239 L20.0511644,3.16902084 L19.8270965,2.60342047 C19.5042182,1.7810673 19.9005614,0.850803529 20.7123485,0.523350683 L21.7224909,0.114034625 C22.5346454,-0.213418221 23.4529566,0.188455727 23.7758349,1.0108089 L26.2405822,7.26218141 C26.791569,7.39613939 27.3025174,7.63428692 27.735593,7.97290293 C28.2425008,8.36361371 28.6461904,8.88456142 28.8922978,9.51341973 C29.1387725,10.138557 29.2012177,10.7971837 29.0983669,11.4334841 C29.010209,11.9842003 28.8045073,12.5125901 28.4959547,12.9926062 L30.7770398,18.7788468 C31.1002854,19.6012 30.7035749,20.5314638 29.8917878,20.8589166 L28.8816454,21.2682327 C28.0698583,21.5960576 27.151547,21.1941837 26.8283014,20.3718305 L26.582194,19.7504143 L5.58225238,22.6751636 Z" id="Fill-1" fill="#9B9B9B"></path>
                <polygon id="Path-5" fill="#9B9B9B" points="27.3189654 18.9129102 3.08736026 23 1 17.1989052 21.2954542 2.88564734 20.671123 0.969001371 23.2961292 0 31 19.5811784 28.4080873 20.7518274"></polygon>
                <path d="M11,20.5796002 C12.0716999,25.1585243 12.6043558,27.6225652 12.5979676,27.971723 C12.5883853,28.4954596 13.1869387,29.0611248 13.5963551,28.9946557 C14.0057716,28.9281867 16.6023548,28.6038572 16.8389471,28.5725341 C17.0755394,28.5412111 17.0940196,27.5581104 16.6023548,26.787982 C16.2745783,26.2745631 15.7483487,24.0119024 15.023666,20 L11,20.5796002 Z" id="Path-6" stroke="#9B9B9B" fill="#9B9B9B"></path>
                <path d="M18.210083,20 C18.210083,20.6604984 18.3328857,21.4154947 18,22" id="Path-8" stroke="#9B9B9B" stroke-linecap="round"></path>
                <path d="M19.4212368,18 C19.5882791,18.9755785 19.8022811,20.5126055 19.9136427,21.0873945 C20.0250042,21.6621835 20.1540315,23.4227607 19.4212368,23.6747073 C18.932707,23.8426717 17.7922947,24.284436 16,25" id="Path-7" stroke="#9B9B9B"></path>
            </g>
        </g>
    </g>
</svg>