<?xml version="1.0" encoding="UTF-8"?>
<svg width="47px" height="57px" viewBox="0 0 47 57" version="1.1" xmlns="http://www.w3.org/2000/svg" xmlns:xlink="http://www.w3.org/1999/xlink">
    <!-- Generator: Sketch 48.2 (47327) - http://www.bohemiancoding.com/sketch -->
    <title>Video ICON Small</title>
    <desc>Created with Sketch.</desc>
    <defs>
        <path d="M0.8,0.32 L46.08,0.32 L46.08,55.84 C46.08,56.2818278 45.7218278,56.64 45.28,56.64 L0.8,56.64 C0.3581722,56.64 6.09219812e-16,56.2818278 5.55111512e-16,55.84 L-1.11022302e-16,1.12 C-1.65130603e-16,0.6781722 0.3581722,0.32 0.8,0.32 Z" id="path-1"></path>
        <polygon id="path-2" points="13.1008185 9.72319214 25.9896735 22.8994629 13.1008185 22.8982239"></polygon>
    </defs>
    <g id="Video-ICON-small" stroke="none" stroke-width="1" fill="none" fill-rule="evenodd" transform="translate(0.000000, -1.000000)">
        <g id="Video-ICON-Small" transform="translate(0.000000, 0.461000)">
            <g id="Page" transform="translate(0.250000, 0.351562)">
                <g id="Rectangle-Copy">
                    <use fill="#FFFFFF" fill-rule="evenodd" xlink:href="#path-1"></use>
                    <path stroke="#171C22" stroke-width="1" d="M45.58,0.82 L0.8,0.82 C0.634314575,0.82 0.5,0.954314575 0.5,1.12 L0.5,55.84 C0.5,56.0056854 0.634314575,56.14 0.8,56.14 L45.28,56.14 C45.4456854,56.14 45.58,56.0056854 45.58,55.84 L45.58,0.82 Z"></path>
                </g>
                <g id="Group-2" transform="translate(0.660000, 1.000000)">
                    <rect id="Rectangle-2-Copy" fill="#F1F1F1" x="0.375117188" y="0.291600342" width="44.0458154" height="32.0394543"></rect>
                    <g id="Rectangle-13" transform="translate(19.545246, 16.311328) scale(-1, -1) rotate(-315.000000) translate(-19.545246, -16.311328) ">
                        <use fill="#171C22" fill-rule="evenodd" xlink:href="#path-2"></use>
                        <path stroke="#171C22" stroke-width="0.5" d="M13.3508185,10.3362842 L13.3508185,22.6482479 L25.3953523,22.6494058 L13.3508185,10.3362842 Z"></path>
                    </g>
                </g>
            </g>
            <path d="M10.0773684,48.3610025 L11.5173684,40.3450025 L13.4693684,40.3450025 L11.0533684,51.8970025 L9.06936838,51.8970025 L6.65336838,40.3450025 L8.60536838,40.3450025 L10.0453684,48.3610025 L10.0773684,48.3610025 Z M16.610421,51.8970025 L14.626421,51.8970025 L14.626421,40.3450025 L16.610421,40.3450025 L16.610421,51.8970025 Z M20.5674737,41.9770025 L20.5674737,50.2650025 L21.2554737,50.2650025 C22.3114737,50.2650025 22.6794737,49.8650025 22.6794737,48.6490025 L22.6794737,43.5930025 C22.6794737,42.3770025 22.3114737,41.9770025 21.2554737,41.9770025 L20.5674737,41.9770025 Z M18.5834737,51.8970025 L18.5834737,40.3450025 L21.5274737,40.3450025 C23.5754737,40.3450025 24.6634737,41.4650025 24.6634737,43.8330025 L24.6634737,48.4090025 C24.6634737,50.7770025 23.5754737,51.8970025 21.5274737,51.8970025 L18.5834737,51.8970025 Z M31.9005263,51.8970025 L26.3645263,51.8970025 L26.3645263,40.3450025 L31.6765263,40.3450025 L31.6765263,42.0730025 L28.3485263,42.0730025 L28.3485263,45.0490025 L30.9085263,45.0490025 L30.9085263,46.7770025 L28.3485263,46.7770025 L28.3485263,50.1690025 L31.9005263,50.1690025 L31.9005263,51.8970025 Z M33.249579,49.0970025 L33.249579,43.1450025 C33.249579,41.5130025 34.209579,40.1850025 36.289579,40.1850025 C38.369579,40.1850025 39.329579,41.5130025 39.329579,43.1450025 L39.329579,49.0970025 C39.329579,50.7290025 38.369579,52.0570025 36.289579,52.0570025 C34.209579,52.0570025 33.249579,50.7290025 33.249579,49.0970025 Z M35.233579,43.1930025 L35.233579,49.0490025 C35.233579,49.9130025 35.489579,50.3290025 36.289579,50.3290025 C37.089579,50.3290025 37.345579,49.9130025 37.345579,49.0490025 L37.345579,43.1930025 C37.345579,42.3290025 37.089579,41.9130025 36.289579,41.9130025 C35.489579,41.9130025 35.233579,42.3290025 35.233579,43.1930025 Z" id="VIDEO" fill="#171C22"></path>
        </g>
    </g>
</svg>